<svg id="Component_81_39" data-name="Component 81 – 39" xmlns="http://www.w3.org/2000/svg" xmlns:xlink="http://www.w3.org/1999/xlink" viewBox="0 0 20.148 16.135">
  <defs>
    <clipPath id="clip-path">
      <rect id="Rectangle_670" data-name="Rectangle 670" width="20.148" height="16.135" fill="#fff"/>
    </clipPath>
  </defs>
  <g id="Group_550" data-name="Group 550" clip-path="url(#clip-path)">
    <path id="Path_1273" data-name="Path 1273" d="M10.053,1.736,9.819,1.9c-.6.41-1.186.842-1.767,1.277-.64.478-1.274.964-1.906,1.45-.4.31-.808.633-1.22.93a1.25,1.25,0,0,1-.762.246H1.29v4.442l2.854.061a1.249,1.249,0,0,1,.737.248l5.172,3.757ZM11.343.664V15.478a.663.663,0,0,1-.665.656,1.728,1.728,0,0,1-.741-.33l-5.82-4.228L.6,11.5A.614.614,0,0,1,0,10.84V5.194a.672.672,0,0,1,.675-.666H4.163C4.919,3.981,9.158.6,10.4.053a.689.689,0,0,1,.947.611" transform="translate(0 0.001)" fill="#fff" fill-rule="evenodd"/>
    <path id="Path_1274" data-name="Path 1274" d="M883.311,70.467a8.672,8.672,0,0,1,2.989,6.461,8.96,8.96,0,0,1-3.053,6.925.612.612,0,0,1-.791-.876,7.873,7.873,0,0,0,2.6-5.819,7.967,7.967,0,0,0-2.6-5.865c-.426-.581.4-1.23.855-.826" transform="translate(-866.155 -69.068)" fill="#fff" fill-rule="evenodd"/>
    <path id="Path_1275" data-name="Path 1275" d="M786.563,169a6.654,6.654,0,0,1,2.074,4.652,7.158,7.158,0,0,1-1.992,5.038c-.556.576-1.548.045-1.007-.722a5.655,5.655,0,0,0,.014-8.177.6.6,0,0,1,.912-.79" transform="translate(-771.075 -165.755)" fill="#fff" fill-rule="evenodd"/>
    <path id="Path_1276" data-name="Path 1276" d="M679.494,270.531a4.037,4.037,0,0,1,1.283,2.887,4.5,4.5,0,0,1-1.263,3.126c-.677.608-1.416-.164-1.055-.632a3.507,3.507,0,0,0,1.086-2.383,3.173,3.173,0,0,0-1.008-2.273c-.48-.5.306-1.319.958-.725" transform="translate(-665.922 -265.432)" fill="#fff" fill-rule="evenodd"/>
  </g>
</svg>
