<svg id="Group_3446" data-name="Group 3446" xmlns="http://www.w3.org/2000/svg" width="21.277" height="21.277" viewBox="0 0 21.277 21.277">
  <path id="Path_5635" data-name="Path 5635" d="M4.715,12.858l-.74,2.765-2.707.057A10.654,10.654,0,0,1,1.19,5.746h0l2.41.442L4.656,8.583a6.345,6.345,0,0,0,.059,4.275Z" fill="#fbbb00"/>
  <path id="Path_5636" data-name="Path 5636" d="M21.091,8.651A10.635,10.635,0,0,1,17.3,18.935h0l-3.036-.155L13.833,16.1a6.339,6.339,0,0,0,2.728-3.237H10.872V8.651H21.091Z" fill="#518ef8"/>
  <path id="Path_5637" data-name="Path 5637" d="M17.3,18.934h0A10.641,10.641,0,0,1,1.268,15.68l3.447-2.822A6.328,6.328,0,0,0,13.833,16.1Z" fill="#28b446"/>
  <path id="Path_5638" data-name="Path 5638" d="M17.429,2.449,13.982,5.271A6.324,6.324,0,0,0,4.656,8.583L1.19,5.746h0a10.64,10.64,0,0,1,16.239-3.3Z" fill="#f14336"/>
</svg>
