<svg xmlns="http://www.w3.org/2000/svg" width="14.078" height="14.085" viewBox="0 0 14.078 14.085">
  <g id="Group_3802" data-name="Group 3802" transform="translate(0)">
    <g id="Group_3431" data-name="Group 3431" transform="translate(0 0)">
      <rect id="Rectangle_2311" data-name="Rectangle 2311" width="2.907" height="9.39" transform="translate(0.279 4.695)" fill="#2b2e34"/>
      <path id="Path_5629" data-name="Path 5629" d="M-500.636,764.008a1.726,1.726,0,0,0,1.719-1.733,1.725,1.725,0,0,0-1.719-1.732,1.725,1.725,0,0,0-1.719,1.732A1.726,1.726,0,0,0-500.636,764.008Z" transform="translate(502.355 -760.542)" fill="#2b2e34"/>
    </g>
    <path id="Path_5630" data-name="Path 5630" d="M-484.161,778.754c0-1.32.608-2.107,1.771-2.107,1.069,0,1.582.755,1.582,2.107v4.929h2.893v-5.946c0-2.515-1.425-3.731-3.416-3.731a3.274,3.274,0,0,0-2.83,1.552v-1.265h-2.788v9.39h2.788Z" transform="translate(491.993 -769.599)" fill="#2b2e34"/>
  </g>
</svg>
