<?xml version="1.0" encoding="utf-8"?>
<!-- Generator: Adobe Illustrator 25.0.0, SVG Export Plug-In . SVG Version: 6.00 Build 0)  -->
<svg version="1.1" xmlns="http://www.w3.org/2000/svg" xmlns:xlink="http://www.w3.org/1999/xlink" x="0px" y="0px"
	 viewBox="200 220 400 150" style="enable-background:new 0 0 841.9 595.3;" xml:space="preserve">
<style type="text/css">
	.st0{fill:#020304;stroke:#020202;stroke-width:0.6549;stroke-miterlimit:10;}
	.st2{fill:#020202;}
</style>
<g>
	<path d="M330.1,246.3c-26.8,16.7-65.3,86.7-71.6,98c1.8-4.8,3.9-9.7,11-22.8C310.7,244.7,329,247.4,330.1,246.3z"/>
	<path class="st0" d="M314.4,302.6l-4.2,9.9h-2.5l13.5-31h2.9l13.5,31H335l-4.2-9.9H314.4z M330,300.9l-7.4-17.6l-7.5,17.6H330z"/>
	<path class="st0" d="M344.7,312.5h-2.2v-22.2h1.4l0.8,2.8c2.6-2.1,5.5-3.2,8.8-3.2c0.8,0,1.5,0.1,2.3,0.2c0.8,0.2,1.6,0.5,2.5,0.9
		c0.9,0.5,1.7,1.1,2.3,1.8c0.7,0.7,1.2,1.7,1.7,3c0.4,1.3,0.7,2.7,0.7,4.3v12.4h-2.2v-12.4c0-1.5-0.2-2.8-0.7-4
		c-0.5-1.1-1.1-2-1.8-2.6c-0.8-0.6-1.6-1.1-2.4-1.4c-0.9-0.3-1.7-0.4-2.7-0.4c-2.9,0-5.6,1-8.4,3V312.5z"/>
	<path class="st0" d="M369.2,282.9c0-0.4,0.2-0.8,0.5-1.1c0.3-0.3,0.7-0.5,1.2-0.5c0.4,0,0.8,0.2,1.1,0.5c0.3,0.3,0.5,0.7,0.5,1.1
		c0,0.7-0.3,1.1-0.8,1.4c-0.5,0.3-1.1,0.3-1.6,0C369.5,284,369.2,283.5,369.2,282.9z M371.9,312.5h-2.2v-22.2h2.2V312.5z"/>
	<path class="st0" d="M380.8,302.6l13-12.2h2.5l-9.2,8.5l10.2,13.6h-2.7l-9.1-12.2l-4.8,4.4v7.8h-2.2v-31l2.2-0.5V302.6z"/>
	<path class="st0" d="M422.7,301.5c0,1.6-0.2,3.1-0.7,4.4c-0.5,1.3-1.1,2.4-1.9,3.3c-0.8,0.9-1.7,1.6-2.7,2.2c-1,0.6-2,1-3.1,1.3
		c-1,0.3-2,0.4-3,0.4c-1.3,0-2.6-0.2-3.8-0.6c-1.3-0.4-2.5-1.1-3.8-2c-1.2-1-2.2-2.2-2.9-3.6c-0.7-1.5-1.1-3.3-1.1-5.3
		c0-1.9,0.4-3.7,1.1-5.2c0.7-1.6,1.7-2.8,2.9-3.7c1.8-1.3,3.7-2.1,5.7-2.5c2-0.3,3.9-0.2,5.7,0.5c1,0.3,1.9,0.8,2.8,1.3
		c0.9,0.6,1.7,1.3,2.5,2.2c0.8,0.9,1.4,2,1.8,3.2C422.5,298.6,422.7,300,422.7,301.5z M404.7,308.6c1.9,1.7,4.1,2.6,6.4,2.6
		c2.4,0,4.5-0.9,6.4-2.6c1.9-1.7,2.8-4.1,2.8-7.1c0-3-0.9-5.4-2.8-7.1c-1.9-1.7-4.1-2.6-6.4-2.6c-2.4,0-4.5,0.9-6.4,2.6
		c-1.9,1.7-2.8,4.1-2.8,7.1C401.9,304.5,402.8,306.9,404.7,308.6z M414.6,282.1l-3.1,5.8h-1.2l3.2-5.8H414.6z"/>
	<path class="st0" d="M446,310.9l9.1-20.5h2.4l-10.1,22.2h-2.7l-10.1-22.2h2.4L446,310.9z"/>
	<path class="st0" d="M479.4,298.7v13.8h-1.4l-0.7-2.2c-2.3,1.8-4.9,2.6-7.6,2.6c-1.9,0-3.8-0.4-5.7-1.1c-1.1-0.5-1.9-1.2-2.6-2.2
		c-0.6-1-1-2.2-1-3.6c0-1.2,0.2-2.2,0.6-3.1c0.4-0.9,0.9-1.6,1.6-2.2c1.8-1.3,4.1-2,6.9-1.9c3.8,0,6.3,0,7.5,0v-0.1
		c0-2.6-0.6-4.4-1.7-5.5c-1.1-1.1-2.8-1.6-5.1-1.6c-2.9,0-5.4,0.7-7.6,2.2l-0.6-1.5c2.5-1.6,5.4-2.3,8.4-2.3
		C476.5,290,479.4,292.9,479.4,298.7z M462.8,305.9c0,3.6,2.4,5.4,7.2,5.4c2.5,0,4.9-0.8,7.3-2.4v-8.6h-7.4
		C465.1,300.2,462.8,302.1,462.8,305.9z"/>
	<path class="st0" d="M488.4,312.5h-2.2v-22.2h1.4l0.8,2.8c2.6-2.1,5.5-3.2,8.8-3.2c0.8,0,1.5,0.1,2.3,0.2c0.8,0.2,1.6,0.5,2.5,0.9
		c0.9,0.5,1.7,1.1,2.3,1.8c0.7,0.7,1.2,1.7,1.7,3c0.4,1.3,0.7,2.7,0.7,4.3v12.4h-2.2v-12.4c0-1.5-0.2-2.8-0.7-4
		c-0.5-1.1-1.1-2-1.8-2.6c-0.8-0.6-1.6-1.1-2.4-1.4c-0.9-0.3-1.7-0.4-2.7-0.4c-2.9,0-5.6,1-8.4,3V312.5z"/>
	<path class="st0" d="M525.1,312.5h-2.3v-31h2.4l19.4,27.2l0.6,0.9l0-0.7v-27.5h2.3v31h-2.4l-19.5-27.3l-0.6-0.8l0.2,1.8V312.5z"/>
	<path class="st0" d="M554.1,282.9c0-0.4,0.2-0.8,0.5-1.1c0.3-0.3,0.7-0.5,1.2-0.5c0.4,0,0.8,0.2,1.1,0.5c0.3,0.3,0.5,0.7,0.5,1.1
		c0,0.7-0.3,1.1-0.8,1.4c-0.5,0.3-1.1,0.3-1.6,0C554.4,284,554.1,283.5,554.1,282.9z M556.8,312.5h-2.2v-22.2h2.2V312.5z"/>
	<path class="st0" d="M581.8,309l0.6,1.6c-2.5,1.6-5.4,2.4-8.6,2.4c-2.6,0-5-0.9-7.3-2.6c-1.2-0.9-2.1-2.1-2.8-3.7
		c-0.7-1.6-1-3.4-1-5.4c0-1.9,0.3-3.6,1-5.2c0.7-1.6,1.6-2.8,2.7-3.7c2.1-1.7,4.4-2.6,6.9-2.6c3,0,5.4,1,7.4,2.9
		c1.9,1.9,2.9,4.9,2.8,8.9h-18.5c0,3,0.9,5.3,2.7,7c1.8,1.6,3.9,2.4,6.3,2.4C576.8,311.2,579.5,310.4,581.8,309z M573.2,291.8
		c-2,0-3.9,0.7-5.5,2.2c-1.6,1.4-2.5,3.5-2.7,6.2h16.4C580.9,294.6,578.2,291.8,573.2,291.8z"/>
	<g>
		<path class="st2" d="M287.8,256.3l-6.7,20.4l-13.2,0l7.1-20.3L287.8,256.3 M290.4,254.3l-16.9,0c0,0-0.1,0.1-0.1,0.1l-8.4,24.2
			c0.1,0.1,0.1,0.1,0.2,0.2l17.2,0c0.1-0.1,0.1-0.1,0.2-0.2l8-24.2C290.5,254.4,290.5,254.4,290.4,254.3L290.4,254.3z"/>
	</g>
</g>
</svg>
