<?xml version="1.0" encoding="utf-8"?>
<!-- Generator: Adobe Illustrator 25.0.0, SVG Export Plug-In . SVG Version: 6.00 Build 0)  -->
<svg version="1.1" xmlns="http://www.w3.org/2000/svg" xmlns:xlink="http://www.w3.org/1999/xlink" x="0px" y="0px"
	 viewBox="300 220 130 130" style="enable-background:new 0 0 841.9 595.3;" xml:space="preserve">
<style type="text/css">
	.st0{fill:#020202;}
	.st1{fill:#020304;stroke:#000000;stroke-width:0.6687;stroke-miterlimit:10;}
	.st2{fill:#010202;}
	.st3{font-family:'Masny-Thin';}
	.st4{font-size:54.5238px;}
</style>
<path class="st0" d="M412.9,249.7c-27.3,17-66.7,88.5-73.1,100c1.8-4.9,4-10,11.2-23.3C393.1,248,411.8,250.7,412.9,249.7z"/>
<path class="st1" d="M396.9,307.1l-4.3,10.1H390l13.8-31.7h3l13.8,31.7H418l-4.3-10.1H396.9z M412.9,305.3l-7.6-18l-7.7,18H412.9z"
	/>
<g>
	<path class="st0" d="M369.7,259.9l-6.9,20.8l-13.4,0l7.2-20.8L369.7,259.9 M372.4,257.7l-17.2,0c0,0-0.1,0.1-0.1,0.1l-8.6,24.7
		c0.1,0.1,0.1,0.1,0.2,0.2l17.6,0c0.1-0.1,0.1-0.1,0.2-0.2l8.2-24.7C372.5,257.9,372.5,257.8,372.4,257.7L372.4,257.7z"/>
</g>
<g>
	<text transform="matrix(1 0 0 1 420.5645 317.2546)" class="st2 st3 st4">.</text>
</g>
</svg>
