<svg xmlns="http://www.w3.org/2000/svg" width="16.07" height="16.07" viewBox="0 0 16.07 16.07">
  <g id="Group_3801" data-name="Group 3801" transform="translate(0)">
    <g id="Group_3429" data-name="Group 3429" transform="translate(0 0)">
      <path id="Path_5626" data-name="Path 5626" d="M-235.977,761.715c2.146,0,2.4.008,3.247.047a4.441,4.441,0,0,1,1.492.277,2.49,2.49,0,0,1,.924.6,2.49,2.49,0,0,1,.6.924,4.45,4.45,0,0,1,.276,1.492c.039.847.047,1.1.047,3.247s-.008,2.4-.047,3.247a4.449,4.449,0,0,1-.276,1.492,2.489,2.489,0,0,1-.6.924,2.491,2.491,0,0,1-.924.6,4.45,4.45,0,0,1-1.492.276c-.847.039-1.1.047-3.247.047s-2.4-.008-3.247-.047a4.45,4.45,0,0,1-1.492-.276,2.492,2.492,0,0,1-.924-.6,2.493,2.493,0,0,1-.6-.924,4.458,4.458,0,0,1-.277-1.492c-.039-.847-.047-1.1-.047-3.247s.008-2.4.047-3.247a4.458,4.458,0,0,1,.277-1.492,2.5,2.5,0,0,1,.6-.924,2.491,2.491,0,0,1,.924-.6,4.441,4.441,0,0,1,1.492-.277c.847-.039,1.1-.047,3.247-.047m0-1.448c-2.182,0-2.456.009-3.313.048a5.908,5.908,0,0,0-1.951.374,3.937,3.937,0,0,0-1.423.927,3.938,3.938,0,0,0-.927,1.423,5.9,5.9,0,0,0-.373,1.951c-.039.857-.049,1.131-.049,3.313s.009,2.456.049,3.313a5.9,5.9,0,0,0,.373,1.95,3.935,3.935,0,0,0,.927,1.423,3.936,3.936,0,0,0,1.423.927,5.891,5.891,0,0,0,1.951.374c.857.039,1.131.048,3.313.048s2.456-.009,3.313-.048a5.893,5.893,0,0,0,1.951-.374,3.935,3.935,0,0,0,1.423-.927,3.934,3.934,0,0,0,.927-1.423,5.888,5.888,0,0,0,.374-1.95c.039-.857.048-1.131.048-3.313s-.009-2.456-.048-3.313a5.89,5.89,0,0,0-.374-1.951,3.937,3.937,0,0,0-.927-1.423,3.937,3.937,0,0,0-1.423-.927,5.91,5.91,0,0,0-1.951-.374c-.857-.039-1.131-.048-3.313-.048" transform="translate(244.012 -760.267)" fill="#2b2e34"/>
      <path id="Path_5627" data-name="Path 5627" d="M-229.348,770.8a4.126,4.126,0,0,0-4.126,4.126,4.126,4.126,0,0,0,4.126,4.126,4.126,4.126,0,0,0,4.126-4.126,4.126,4.126,0,0,0-4.126-4.126m0,6.8a2.678,2.678,0,0,1-2.678-2.678,2.679,2.679,0,0,1,2.678-2.678,2.678,2.678,0,0,1,2.678,2.678,2.678,2.678,0,0,1-2.678,2.678" transform="translate(237.383 -766.896)" fill="#2b2e34"/>
      <path id="Path_5628" data-name="Path 5628" d="M-211.46,768.73a.964.964,0,0,1-.964.964.964.964,0,0,1-.965-.964.964.964,0,0,1,.965-.964.964.964,0,0,1,.964.964" transform="translate(224.749 -764.984)" fill="#2b2e34"/>
    </g>
  </g>
</svg>
