<?xml version="1.0" encoding="utf-8"?>
<!-- Generator: Adobe Illustrator 25.0.0, SVG Export Plug-In . SVG Version: 6.00 Build 0)  -->
<svg version="1.1" id="Layer_1"
	 xmlns="http://www.w3.org/2000/svg" x="0px" y="0px" viewBox="0 0 841.9 595.3"
	 style="enable-background:new 0 0 841.9 595.3;">
<style type="text/css">
	.st1{fill:#FCFCFC;}
	.st2{fill:none;stroke:#FCFCFC;stroke-width:0.3;stroke-linecap:round;stroke-linejoin:round;stroke-miterlimit:10;}
	.st9{fill:#FFFFFF;}
	.st10{fill:#FDFDFD;stroke:#FCFCFC;stroke-width:0.6549;stroke-miterlimit:10;}
	.st11{fill:#FDFDFD;}
</style>
	<g>
			<image style="overflow:visible;" width="5184" height="3456" xlink:href="6E169836D871078B.jpg"  transform="matrix(0.1624 0 0 0.1726 0 -1.2369)">
		</image>
			<linearGradient id="SVGID_1_" gradientUnits="userSpaceOnUse" x1="517.1797" y1="726.7665" x2="267.1409" y2="385.1248" gradientTransform="matrix(-1 0 0 1 841.8898 0)">
			<stop  offset="0" style="stop-color:#000000;stop-opacity:0"/>
			<stop  offset="1" style="stop-color:#000000;stop-opacity:0.7"/>
		</linearGradient>
		<polygon class="st0" points="841.9,595.3 425.7,309.7 408.2,309.7 0,595.3 		"/>
		<g>
			<path class="st1" d="M430.9,287.5l-6.7,20.4l-13.2,0l7.1-20.3L430.9,287.5 M433.6,285.4l-16.9,0c0,0-0.1,0.1-0.1,0.1l-8.4,24.2
				c0.1,0.1,0.1,0.1,0.2,0.2l17.2,0c0.1-0.1,0.1-0.1,0.2-0.2l8-24.2C433.7,285.5,433.6,285.5,433.6,285.4L433.6,285.4z"/>
		</g>
		<line class="st2" x1="0" y1="0" x2="416.7" y2="285.4"/>
		<line class="st2" x1="841.9" y1="0" x2="433.6" y2="285.4"/>
		<line class="st2" x1="425.5" y1="309.9" x2="841.9" y2="595.3"/>
		<line class="st2" x1="0" y1="595.3" x2="408.3" y2="309.9"/>
		<linearGradient id="SVGID_2_" gradientUnits="userSpaceOnUse" x1="866.3242" y1="472.5665" x2="619.4178" y2="135.2049">
			<stop  offset="0" style="stop-color:#000000;stop-opacity:0"/>
			<stop  offset="1" style="stop-color:#000000;stop-opacity:0.7"/>
		</linearGradient>
		<polygon class="st3" points="433.7,285.6 841.9,0 841.9,595.3 425.7,309.7 		"/>
		<linearGradient id="SVGID_3_" gradientUnits="userSpaceOnUse" x1="-53.7272" y1="531.1194" x2="226.6839" y2="121.1912">
			<stop  offset="0" style="stop-color:#000000;stop-opacity:0"/>
			<stop  offset="0.9742" style="stop-color:#000000;stop-opacity:0.7"/>
		</linearGradient>
		<polygon class="st4" points="0,-1.2 416.6,285.5 408.2,309.7 0,595.3 		"/>
		<linearGradient id="SVGID_4_" gradientUnits="userSpaceOnUse" x1="509.2541" y1="-102.1962" x2="240.2577" y2="207.2172">
			<stop  offset="0" style="stop-color:#000000;stop-opacity:0"/>
			<stop  offset="0.9742" style="stop-color:#000000;stop-opacity:0.7"/>
		</linearGradient>
		<polygon class="st5" points="0,-1.2 416.6,285.5 433.7,285.6 841.9,0 		"/>
	</g>
</svg>