<?xml version="1.0" encoding="utf-8"?>
<!-- Generator: Adobe Illustrator 25.0.0, SVG Export Plug-In . SVG Version: 6.00 Build 0)  -->
<svg version="1.1" id="Layer_1"
	 xmlns="http://www.w3.org/2000/svg" x="0px" y="0px" viewBox="0 0 841.9 595.3"
	 style="enable-background:new 0 0 841.9 595.3;">
<style type="text/css">
	.st1{fill:#FCFCFC;}
	.st2{fill:none;stroke:#FCFCFC;stroke-width:0.3;stroke-linecap:round;stroke-linejoin:round;stroke-miterlimit:10;}
	.st9{fill:#FFFFFF;}
	.st10{fill:#FDFDFD;stroke:#FCFCFC;stroke-width:0.6549;stroke-miterlimit:10;}
	.st11{fill:#FDFDFD;}
</style>
	<g>
			<image style="overflow:visible;" width="5184" height="3456" xlink:href="6E276E504C8DB019.jpg"  transform="matrix(0.1624 0 0 0.1726 0 -1.2369)">
		</image>
		<linearGradient id="SVGID_1_" gradientUnits="userSpaceOnUse" x1="816.1097" y1="485.6651" x2="513.4937" y2="72.1844">
			<stop  offset="0" style="stop-color:#000000;stop-opacity:0"/>
			<stop  offset="1" style="stop-color:#000000;stop-opacity:0.7"/>
		</linearGradient>
		<polyline class="st0" points="841.9,595.3 282.6,277.5 290.4,253.2 841.9,0 		"/>
		
			<linearGradient id="SVGID_2_" gradientUnits="userSpaceOnUse" x1="2240.9592" y1="726.7665" x2="1990.9204" y2="385.1248" gradientTransform="matrix(-1 0 0 1 2565.6692 0)">
			<stop  offset="0" style="stop-color:#000000;stop-opacity:0"/>
			<stop  offset="1" style="stop-color:#000000;stop-opacity:0.7"/>
		</linearGradient>
		<line class="st3" x1="0" y1="595.3" x2="841.9" y2="595.3"/>
		
			<linearGradient id="SVGID_3_" gradientUnits="userSpaceOnUse" x1="2240.9592" y1="726.7665" x2="1990.9204" y2="385.1248" gradientTransform="matrix(-1 0 0 1 2565.6692 0)">
			<stop  offset="0" style="stop-color:#000000;stop-opacity:0"/>
			<stop  offset="1" style="stop-color:#000000;stop-opacity:0.7"/>
		</linearGradient>
		<polyline class="st4" points="841.9,595.3 282.4,277.7 265.2,277.7 0,595.3 		"/>
		<linearGradient id="SVGID_4_" gradientUnits="userSpaceOnUse" x1="-109.905" y1="492.6911" x2="170.506" y2="82.7628">
			<stop  offset="0" style="stop-color:#000000;stop-opacity:0"/>
			<stop  offset="0.9742" style="stop-color:#000000;stop-opacity:0.7"/>
		</linearGradient>
		<polyline class="st5" points="0,-1.2 273.4,253.3 265.2,277.7 0,595.3 		"/>
		<line class="st2" x1="0" y1="0" x2="273.4" y2="253.3"/>
		<line class="st2" x1="841.9" y1="0" x2="290.6" y2="253.4"/>
		<line class="st2" x1="0" y1="595.3" x2="265.2" y2="277.7"/>
		<g>
			<path class="st9" d="M330,245.3c-26.8,16.7-65.3,86.7-71.6,98c1.8-4.8,3.9-9.7,11-22.8C310.6,243.6,328.9,246.3,330,245.3z"/>
			<path class="st10" d="M314.4,301.5l-4.2,9.9h-2.5l13.5-31h2.9l13.5,31H335l-4.2-9.9H314.4z M330,299.8l-7.4-17.6l-7.5,17.6H330z"
				/>
			<path class="st10" d="M344.7,311.5h-2.2v-22.2h1.4l0.8,2.8c2.6-2.1,5.5-3.2,8.8-3.2c0.8,0,1.5,0.1,2.3,0.2
				c0.8,0.2,1.6,0.5,2.5,0.9c0.9,0.5,1.7,1.1,2.3,1.8c0.7,0.7,1.2,1.7,1.7,3c0.4,1.3,0.7,2.7,0.7,4.3v12.4h-2.2v-12.4
				c0-1.5-0.2-2.8-0.7-4c-0.5-1.1-1.1-2-1.8-2.6c-0.8-0.6-1.6-1.1-2.4-1.4c-0.9-0.3-1.7-0.4-2.7-0.4c-2.9,0-5.6,1-8.4,3V311.5z"/>
			<path class="st10" d="M369.2,281.8c0-0.4,0.2-0.8,0.5-1.1c0.3-0.3,0.7-0.5,1.2-0.5c0.4,0,0.8,0.2,1.1,0.5
				c0.3,0.3,0.5,0.7,0.5,1.1c0,0.7-0.3,1.1-0.8,1.4c-0.5,0.3-1.1,0.3-1.6,0C369.4,282.9,369.2,282.4,369.2,281.8z M371.9,311.5h-2.2
				v-22.2h2.2V311.5z"/>
			<path class="st10" d="M380.8,301.5l13-12.2h2.5l-9.2,8.5l10.2,13.6h-2.7l-9.1-12.2l-4.8,4.4v7.8h-2.2v-31l2.2-0.5V301.5z"/>
			<path class="st10" d="M422.7,300.4c0,1.6-0.2,3.1-0.7,4.4c-0.5,1.3-1.1,2.4-1.9,3.3c-0.8,0.9-1.7,1.6-2.7,2.2c-1,0.6-2,1-3.1,1.3
				c-1,0.3-2,0.4-3,0.4c-1.3,0-2.6-0.2-3.8-0.6c-1.3-0.4-2.5-1.1-3.8-2c-1.2-1-2.2-2.2-2.9-3.6c-0.7-1.5-1.1-3.3-1.1-5.3
				c0-1.9,0.4-3.7,1.1-5.2c0.7-1.6,1.7-2.8,2.9-3.7c1.8-1.3,3.7-2.1,5.7-2.5c2-0.3,3.9-0.2,5.7,0.5c1,0.3,1.9,0.8,2.8,1.3
				c0.9,0.6,1.7,1.3,2.5,2.2c0.8,0.9,1.4,2,1.8,3.2C422.5,297.5,422.7,298.9,422.7,300.4z M404.7,307.5c1.9,1.7,4.1,2.6,6.4,2.6
				c2.4,0,4.5-0.9,6.4-2.6c1.9-1.7,2.8-4.1,2.8-7.1c0-3-0.9-5.4-2.8-7.1c-1.9-1.7-4.1-2.6-6.4-2.6c-2.4,0-4.5,0.9-6.4,2.6
				c-1.9,1.7-2.8,4.1-2.8,7.1C401.8,303.4,402.8,305.8,404.7,307.5z M414.6,281.1l-3.1,5.8h-1.2l3.2-5.8H414.6z"/>
			<path class="st10" d="M446,309.8l9.1-20.5h2.4l-10.1,22.2h-2.7l-10.1-22.2h2.4L446,309.8z"/>
			<path class="st10" d="M479.4,297.6v13.8h-1.4l-0.7-2.2c-2.3,1.8-4.9,2.6-7.6,2.6c-1.9,0-3.8-0.4-5.7-1.1
				c-1.1-0.5-1.9-1.2-2.6-2.2c-0.6-1-1-2.2-1-3.6c0-1.2,0.2-2.2,0.6-3.1c0.4-0.9,0.9-1.6,1.6-2.2c1.8-1.3,4.1-2,6.9-1.9
				c3.8,0,6.3,0,7.5,0v-0.1c0-2.6-0.6-4.4-1.7-5.5c-1.1-1.1-2.8-1.6-5.1-1.6c-2.9,0-5.4,0.7-7.6,2.2l-0.6-1.5
				c2.5-1.6,5.4-2.3,8.4-2.3C476.5,288.9,479.4,291.8,479.4,297.6z M462.8,304.8c0,3.6,2.4,5.4,7.2,5.4c2.5,0,4.9-0.8,7.3-2.4v-8.6
				h-7.4C465.1,299.1,462.8,301,462.8,304.8z"/>
			<path class="st10" d="M488.4,311.5h-2.2v-22.2h1.4l0.8,2.8c2.6-2.1,5.5-3.2,8.8-3.2c0.8,0,1.5,0.1,2.3,0.2
				c0.8,0.2,1.6,0.5,2.5,0.9c0.9,0.5,1.7,1.1,2.3,1.8s1.2,1.7,1.7,3c0.4,1.3,0.7,2.7,0.7,4.3v12.4h-2.2v-12.4c0-1.5-0.2-2.8-0.7-4
				c-0.5-1.1-1.1-2-1.8-2.6c-0.8-0.6-1.6-1.1-2.4-1.4c-0.9-0.3-1.7-0.4-2.7-0.4c-2.9,0-5.6,1-8.4,3V311.5z"/>
			<path class="st10" d="M525.1,311.5h-2.3v-31h2.4l19.4,27.2l0.6,0.9l0-0.7v-27.5h2.3v31h-2.4l-19.5-27.3l-0.6-0.8l0.2,1.8V311.5z"
				/>
			<path class="st10" d="M554.1,281.8c0-0.4,0.2-0.8,0.5-1.1c0.3-0.3,0.7-0.5,1.2-0.5c0.4,0,0.8,0.2,1.1,0.5
				c0.3,0.3,0.5,0.7,0.5,1.1c0,0.7-0.3,1.1-0.8,1.4c-0.5,0.3-1.1,0.3-1.6,0C554.4,282.9,554.1,282.4,554.1,281.8z M556.8,311.5h-2.2
				v-22.2h2.2V311.5z"/>
			<path class="st10" d="M581.8,307.9l0.6,1.6c-2.5,1.6-5.4,2.4-8.6,2.4c-2.6,0-5-0.9-7.3-2.6c-1.2-0.9-2.1-2.1-2.8-3.7
				c-0.7-1.6-1-3.4-1-5.4c0-1.9,0.3-3.6,1-5.2c0.7-1.6,1.6-2.8,2.7-3.7c2.1-1.7,4.4-2.6,6.9-2.6c3,0,5.4,1,7.4,2.9
				c1.9,1.9,2.9,4.9,2.8,8.9h-18.5c0,3,0.9,5.3,2.7,7c1.8,1.6,3.9,2.4,6.3,2.4C576.8,310.1,579.4,309.3,581.8,307.9z M573.2,290.7
				c-2,0-3.9,0.7-5.5,2.2c-1.6,1.4-2.5,3.5-2.7,6.2h16.4C580.9,293.5,578.2,290.7,573.2,290.7z"/>
			<path class="st11" d="M386.4,336.8l-2.8,6.5h-1l8.4-19h1.2l8.4,19h-0.9l-2.9-6.5H386.4z M396.5,336l-4.9-11.1l-4.9,11.1H396.5z"
				/>
			<path class="st11" d="M405.1,343.2h-0.8v-13.6h0.5l0.3,1.8v0c1.6-1.4,3.4-2.1,5.3-2.1c0,0,0.3,0,0.8,0.1l-0.2,0.7
				c-0.1,0-0.3,0-0.6,0c-1,0-1.9,0.2-2.8,0.5s-1.7,0.9-2.5,1.7V343.2z"/>
			<path class="st11" d="M415.9,330.3h-3l3-0.7v-3.8l0.8-0.3v4.1h5.9v0.7h-5.9v9.1c0,1.1,0.2,2,0.8,2.5c0.5,0.6,1.3,0.8,2.5,0.8
				c0.9,0,1.8-0.2,2.5-0.6l0.3,0.5c-0.8,0.5-1.7,0.8-2.7,0.8c-2.8,0-4.1-1.4-4.1-4.1V330.3z"/>
			<path class="st11" d="M439.5,336.8l-2.8,6.5h-1l8.4-19h1.2l8.4,19h-0.9l-2.9-6.5H439.5z M449.7,336l-4.9-11.1l-4.9,11.1H449.7z"
				/>
			<path class="st11" d="M469.2,329.6h0.5v14.1c0,0.9-0.1,1.8-0.4,2.5c-0.2,0.7-0.5,1.3-0.9,1.8c-0.4,0.5-0.8,0.8-1.4,1.1
				c-0.5,0.3-1.1,0.5-1.6,0.6c-0.5,0.1-1.1,0.2-1.7,0.2c-1.3,0-2.4-0.2-3.5-0.6c-1-0.4-1.8-1-2.4-1.8l0.5-0.5
				c0.6,0.7,1.3,1.3,2.2,1.7c0.9,0.4,1.9,0.6,3.1,0.6c1.6,0,2.9-0.5,3.8-1.4c0.9-0.9,1.4-2.3,1.4-4.2v-2.2c-1.8,1.2-3.6,1.9-5.4,1.9
				c-1.6,0-3.1-0.5-4.5-1.6c-0.7-0.6-1.3-1.3-1.7-2.3c-0.4-1-0.6-2-0.6-3.2c0-1.2,0.2-2.2,0.6-3.2c0.4-1,1-1.7,1.7-2.3
				c1.4-1,2.9-1.6,4.5-1.6c1.9,0,3.7,0.6,5.4,1.9L469.2,329.6z M463.5,342.8c1.8,0,3.6-0.7,5.4-2v-8.7c-1.8-1.4-3.6-2-5.4-2
				c-1.6,0-3,0.6-4.2,1.7c-1.2,1.1-1.8,2.7-1.8,4.7c0,2,0.6,3.6,1.8,4.7C460.4,342.2,461.8,342.8,463.5,342.8z"/>
			<path class="st11" d="M485.4,341.4l0.4,0.6c-1.5,1-3.3,1.5-5.2,1.5c-1.5,0-3-0.5-4.4-1.6c-0.7-0.5-1.3-1.3-1.7-2.3
				c-0.4-1-0.6-2.1-0.6-3.3c0-1.2,0.2-2.2,0.6-3.2c0.4-1,1-1.7,1.7-2.3c1.3-1,2.7-1.6,4.1-1.6c1.8,0,3.3,0.6,4.5,1.7
				c1.2,1.1,1.7,2.9,1.7,5.3h-11.7c0,2,0.6,3.6,1.8,4.7c1.2,1.1,2.5,1.7,4.1,1.7C482.4,342.8,484,342.3,485.4,341.4z M480.3,330.1
				c-1.3,0-2.5,0.5-3.7,1.6c-1.1,1-1.7,2.4-1.8,4.2h10.8c-0.1-1.9-0.6-3.3-1.5-4.2S481.9,330.1,480.3,330.1z"/>
			<path class="st11" d="M491.5,343.2h-0.8v-13.6h0.5l0.3,1.6c1.7-1.3,3.6-1.9,5.6-1.9c0.5,0,1,0,1.4,0.1c0.5,0.1,1,0.3,1.5,0.6
				s1,0.6,1.4,1.1c0.4,0.4,0.8,1.1,1,1.8s0.4,1.7,0.4,2.6v7.6h-0.8v-7.6c0-0.8-0.1-1.5-0.3-2.2s-0.5-1.2-0.8-1.6
				c-0.3-0.4-0.7-0.8-1.2-1s-0.9-0.5-1.3-0.6c-0.5-0.1-0.9-0.2-1.4-0.2c-1.9,0-3.8,0.7-5.6,2V343.2z"/>
			<path class="st11" d="M514,342.8c0.8,0,1.6-0.1,2.2-0.3s1.4-0.6,2.2-1.1l0.4,0.6c-1.6,1-3.2,1.5-4.8,1.5c-1.6,0-3.1-0.5-4.5-1.6
				c-0.7-0.5-1.3-1.3-1.7-2.3c-0.4-1-0.6-2-0.6-3.2c0-1.2,0.2-2.3,0.6-3.2c0.4-1,1-1.7,1.7-2.3c1.4-1.1,2.9-1.6,4.5-1.6
				c1.5,0,3.1,0.5,4.8,1.5l-0.4,0.6c-1.5-0.9-3-1.4-4.4-1.4c-1.6,0-3,0.6-4.2,1.7c-1.2,1.1-1.8,2.7-1.8,4.7c0,2,0.6,3.6,1.8,4.7
				C511,342.2,512.4,342.8,514,342.8z"/>
			<path class="st11" d="M527.4,343.2l-6.4-13.6h0.9l5.8,12.6l5.4-12.6h0.9l-8.8,20.4h-0.9L527.4,343.2z"/>
			<g>
				<path class="st1" d="M287.7,255.3l-6.7,20.4l-13.2,0l7.1-20.3L287.7,255.3 M290.4,253.2l-16.9,0c0,0-0.1,0.1-0.1,0.1l-8.4,24.2
					c0.1,0.1,0.1,0.1,0.2,0.2l17.2,0c0.1-0.1,0.1-0.1,0.2-0.2l8-24.2C290.5,253.3,290.5,253.3,290.4,253.2L290.4,253.2z"/>
			</g>
		</g>
		<linearGradient id="SVGID_5_" gradientUnits="userSpaceOnUse" x1="507.1229" y1="-99.7448" x2="231.9346" y2="216.7909">
			<stop  offset="0" style="stop-color:#000000;stop-opacity:0"/>
			<stop  offset="0.9742" style="stop-color:#000000;stop-opacity:0.7"/>
		</linearGradient>
		<polygon class="st6" points="0,-1.2 273.4,253.3 290.4,253.2 841.9,0 		"/>
	</g>
</svg>