<svg xmlns="http://www.w3.org/2000/svg" width="93.428" height="45.954" viewBox="0 0 93.428 45.954">
  <g id="Path_7468" data-name="Path 7468" transform="translate(-105.911 -1740.089)" fill="#f2efe9" stroke-linecap="round" stroke-linejoin="round" opacity="0.8">
    <path d="M 152.1651458740234 1783.741455078125 L 151.2316131591797 1782.94140625 L 109.2843170166016 1746.987182617188 L 104.1530532836914 1742.588989257812 L 110.9112777709961 1742.588989257812 L 129.8184204101562 1742.588989257812 L 130.6484985351562 1742.588989257812 L 131.313720703125 1743.08544921875 L 163.6779174804688 1767.239990234375 L 194.5536041259766 1769.9052734375 L 194.8487854003906 1774.843383789062 L 153.3687744140625 1783.490600585938 L 152.1651458740234 1783.741455078125 Z" stroke="none"/>
    <path d="M 110.9112701416016 1745.088989257812 L 152.8585815429688 1781.043212890625 L 194.3385925292969 1772.39599609375 L 162.7533569335938 1769.66943359375 L 129.8184204101562 1745.088989257812 L 110.9112701416016 1745.088989257812 M 110.9112701416016 1740.088989257812 L 129.8184204101562 1740.088989257812 C 130.896240234375 1740.088989257812 131.9452209472656 1740.437255859375 132.8090057373047 1741.081909179688 L 164.6024475097656 1764.810424804688 L 194.7686004638672 1767.41455078125 C 197.240234375 1767.6279296875 199.181640625 1769.621215820312 199.3296813964844 1772.09765625 C 199.4777069091797 1774.573974609375 197.7875823974609 1776.784545898438 195.3589782714844 1777.290771484375 L 153.8789825439453 1785.93798828125 C 152.3608856201172 1786.25390625 150.7820129394531 1785.8486328125 149.6046600341797 1784.839477539062 L 107.6573486328125 1748.88525390625 C 106.0686798095703 1747.523559570312 105.4959106445312 1745.316650390625 106.2218475341797 1743.354248046875 C 106.9477844238281 1741.391845703125 108.8188934326172 1740.088989257812 110.9112701416016 1740.088989257812 Z" stroke="none" fill="#f2efe9"/>
  </g>
</svg>
