<svg xmlns="http://www.w3.org/2000/svg" width="493.433" height="216.671" viewBox="0 0 493.433 216.671">
  <g id="Path_7473" data-name="Path 7473" transform="translate(-692.464 -1311.869)" fill="#f2efe9" stroke-linecap="round" stroke-linejoin="round">
    <path d="M 836.1632690429688 1528.156860351562 L 835.18701171875 1526.212158203125 L 812.5845336914062 1481.187133789062 L 749.0684204101562 1486.637817382812 L 748.486328125 1486.687744140625 L 748.0238037109375 1486.330810546875 L 694.5477905273438 1445.066528320312 L 692.45654296875 1443.452758789062 L 694.913818359375 1442.483520507812 L 783.7828979492188 1407.431274414062 L 908.1314086914062 1313.671142578125 L 908.5838623046875 1313.329956054688 L 909.1488647460938 1313.373168945312 L 994.43408203125 1319.896240234375 L 1044.419555664062 1313.38134765625 L 1045.09521484375 1313.293334960938 L 1045.60595703125 1313.744140625 L 1109.585205078125 1370.2099609375 L 1109.968872070312 1370.548583984375 L 1110.065551757812 1371.051025390625 L 1122.37255859375 1434.984008789062 L 1183.435668945312 1458.482421875 L 1185.107299804688 1459.125732421875 L 1184.1806640625 1460.658447265625 L 1154.19921875 1510.244873046875 L 1153.66455078125 1511.12890625 L 1152.648071289062 1510.944702148438 L 988.1429443359375 1481.130126953125 L 857.559814453125 1504.809326171875 L 837.6334838867188 1526.552612304688 L 836.1632690429688 1528.156860351562 Z" stroke="none"/>
    <path d="M 836.527587890625 1525.539184570312 L 856.7952270507812 1503.423461914062 L 988.142822265625 1479.605712890625 L 1152.91552734375 1509.46875 L 1182.89697265625 1459.88232421875 L 1121.056884765625 1436.0849609375 L 1108.592651367188 1371.334594726562 L 1044.613403320312 1314.868774414062 L 994.474365234375 1321.403686523438 L 909.0344848632812 1314.868774414062 L 784.5230712890625 1408.751831054688 L 695.4641723632812 1443.87890625 L 748.940185546875 1485.143310546875 L 813.4690551757812 1479.605712890625 L 836.527587890625 1525.539184570312 M 836.52783203125 1528.539184570312 C 836.390380859375 1528.539184570312 836.2522583007812 1528.52978515625 836.114013671875 1528.510498046875 C 835.1369018554688 1528.37451171875 834.2891235351562 1527.766845703125 833.8464965820312 1526.885131835938 L 811.7000122070312 1482.7685546875 L 749.1966552734375 1488.13232421875 C 748.447998046875 1488.196533203125 747.7022705078125 1487.977294921875 747.107421875 1487.518432617188 L 693.6314086914062 1446.254028320312 C 692.77685546875 1445.594482421875 692.3424072265625 1444.526733398438 692.4938354492188 1443.4580078125 C 692.645263671875 1442.389282226562 693.3592529296875 1441.484252929688 694.3634033203125 1441.088134765625 L 783.042724609375 1406.11083984375 L 907.2283325195312 1312.473388671875 C 907.8114013671875 1312.033813476562 908.5345458984375 1311.821044921875 909.2633056640625 1311.877563476562 L 994.3941040039062 1318.388793945312 L 1044.225708007812 1311.893920898438 C 1045.084716796875 1311.781982421875 1045.949462890625 1312.046630859375 1046.598510742188 1312.619506835938 L 1110.577758789062 1369.085327148438 C 1111.075317382812 1369.5244140625 1111.413208007812 1370.115966796875 1111.53857421875 1370.767578125 L 1123.688110351562 1433.883056640625 L 1183.974365234375 1457.08251953125 C 1184.802978515625 1457.4013671875 1185.44775390625 1458.07080078125 1185.7353515625 1458.910766601562 C 1186.022827148438 1459.750732421875 1185.923583984375 1460.6748046875 1185.464233398438 1461.4345703125 L 1155.482788085938 1511.02099609375 C 1154.838989257812 1512.085693359375 1153.60498046875 1512.643188476562 1152.380493164062 1512.420654296875 L 988.1428833007812 1482.654663085938 L 858.3244018554688 1506.195068359375 L 838.7393188476562 1527.566040039062 C 838.1670532226562 1528.190551757812 837.3624267578125 1528.539184570312 836.52783203125 1528.539184570312 Z" stroke="none" fill="#f2efe9"/>
  </g>
</svg>
