<svg xmlns="http://www.w3.org/2000/svg" width="370.708" height="227.107" viewBox="0 0 370.708 227.107">
  <g id="Path_7472" data-name="Path 7472" transform="translate(-780.939 -1487.125)" fill="#f2efe9" stroke-linecap="round" stroke-linejoin="round">
    <path d="M 793.3919677734375 1712.997924804688 L 793.3919677734375 1711.231689453125 L 793.3919677734375 1675.092651367188 L 782.609619140625 1654.440673828125 L 782.2890625 1653.826782226562 L 782.5484619140625 1653.1845703125 L 804.9420776367188 1597.751831054688 L 804.9420776367188 1569.357299804688 L 804.9420776367188 1568.775268554688 L 805.3346557617188 1568.345458984375 L 858.4154052734375 1510.24609375 L 858.7606811523438 1509.868286132812 L 859.2649536132812 1509.7802734375 L 980.37646484375 1488.646850585938 L 980.64111328125 1488.6005859375 L 980.9053344726562 1488.649169921875 L 1148.917846679688 1519.509399414062 L 1151.550170898438 1519.992919921875 L 1149.763916015625 1521.985961914062 L 1094.555541992188 1583.580078125 L 1125.714721679688 1613.700927734375 L 1127.166748046875 1615.1044921875 L 1125.403564453125 1616.089111328125 L 1018.049255371094 1676.0341796875 L 1017.820007324219 1676.162231445312 L 1017.560913085938 1676.204833984375 L 795.1348876953125 1712.7119140625 L 793.3919677734375 1712.997924804688 Z" stroke="none"/>
    <path d="M 794.8919677734375 1711.231689453125 L 1017.317932128906 1674.724609375 L 1124.672241210938 1614.779418945312 L 1092.474365234375 1583.654541015625 L 1148.646850585938 1520.984741210938 L 980.6343383789062 1490.12451171875 L 859.5228271484375 1511.257934570312 L 806.4420776367188 1569.357299804688 L 806.4420776367188 1598.04345703125 L 783.9392700195312 1653.746459960938 L 794.8919677734375 1674.724609375 L 794.8919677734375 1711.231689453125 M 794.8919677734375 1714.231689453125 C 794.185791015625 1714.231689453125 793.4962768554688 1713.982177734375 792.9500122070312 1713.518310546875 C 792.2788696289062 1712.948364257812 791.8919677734375 1712.1123046875 791.8919677734375 1711.231689453125 L 791.8919677734375 1675.460571289062 L 781.2799682617188 1655.134887695312 C 780.8731689453125 1654.355834960938 780.8284912109375 1653.437622070312 781.15771484375 1652.622802734375 L 803.4420776367188 1597.460327148438 L 803.4420776367188 1569.357299804688 C 803.4420776367188 1568.6083984375 803.72216796875 1567.886596679688 804.227294921875 1567.333740234375 L 857.3080444335938 1509.234497070312 C 857.7557373046875 1508.744384765625 858.353271484375 1508.416748046875 859.0071411132812 1508.302612304688 L 980.11865234375 1487.169189453125 C 980.4686279296875 1487.108154296875 980.8267822265625 1487.10986328125 981.17626953125 1487.173828125 L 1149.188842773438 1518.034057617188 C 1150.256469726562 1518.230224609375 1151.134887695312 1518.98779296875 1151.485717773438 1520.014892578125 C 1151.836669921875 1521.042114257812 1151.605346679688 1522.178833007812 1150.880737304688 1522.987060546875 L 1096.636596679688 1583.505493164062 L 1126.75732421875 1612.622436523438 C 1127.439697265625 1613.282104492188 1127.769775390625 1614.225952148438 1127.647094726562 1615.167114257812 C 1127.5244140625 1616.108276367188 1126.963500976562 1616.935913085938 1126.134887695312 1617.398681640625 L 1018.780517578125 1677.343872070312 C 1018.477172851562 1677.513305664062 1018.146667480469 1677.628662109375 1017.803833007812 1677.68505859375 L 795.3778686523438 1714.192138671875 C 795.216064453125 1714.218627929688 795.0535888671875 1714.231689453125 794.8919677734375 1714.231689453125 Z" stroke="none" fill="#f2efe9"/>
  </g>
</svg>
