<svg xmlns="http://www.w3.org/2000/svg" width="293.539" height="221.288" viewBox="0 0 293.539 221.288">
  <g id="Path_7463" data-name="Path 7463" transform="translate(-227.677 -1532.697)" fill="#f2efe9" stroke-linecap="round" stroke-linejoin="round">
    <path d="M 368.3701171875 1752.714599609375 L 367.6162719726562 1752.298217773438 L 229.9515380859375 1676.256103515625 L 229.1768035888672 1675.828125 L 229.1768035888672 1674.943115234375 L 229.1768035888672 1639.542602539062 L 229.1768035888672 1638.716796875 L 229.8746490478516 1638.275146484375 L 292.4686584472656 1598.662109375 L 292.8360290527344 1598.429565429688 L 293.2708129882812 1598.429565429688 L 367.8355102539062 1598.429565429688 L 451.7990417480469 1534.503295898438 L 452.6203308105469 1533.878051757812 L 453.497802734375 1534.421752929688 L 501.4474182128906 1564.134765625 L 501.8040771484375 1564.355712890625 L 501.9942932128906 1564.729736328125 L 519.5526733398438 1599.24951171875 L 520.057861328125 1600.24267578125 L 519.2528686523438 1601.01318359375 L 425.1783142089844 1691.052490234375 L 406.7384948730469 1729.542114257812 L 406.5428771972656 1729.950439453125 L 406.1539916992188 1730.182373046875 L 369.1098022460938 1752.273559570312 L 368.3701171875 1752.714599609375 Z" stroke="none"/>
    <path d="M 452.7077026367188 1535.69677734375 L 368.3415222167969 1599.929565429688 L 293.2708129882812 1599.929565429688 L 230.6767578125 1639.542602539062 L 230.6767578125 1674.943115234375 L 368.3415222167969 1750.985229492188 L 405.3857421875 1728.89404296875 L 423.9436645507812 1690.157836914062 L 518.2156982421875 1599.929565429688 L 500.6572875976562 1565.409790039062 L 452.7077026367188 1535.69677734375 M 452.7079772949219 1532.69677734375 C 453.2543640136719 1532.69677734375 453.8021545410156 1532.845703125 454.2879333496094 1533.146728515625 L 502.237548828125 1562.859741210938 C 502.7041015625 1563.148803710938 503.0823974609375 1563.560424804688 503.3312683105469 1564.049682617188 L 520.8896484375 1598.569458007812 C 521.489501953125 1599.748779296875 521.2459106445312 1601.182006835938 520.2900390625 1602.096923828125 L 426.4129638671875 1691.947143554688 L 408.0912780761719 1730.190185546875 C 407.8361206054688 1730.722778320312 407.4294738769531 1731.168212890625 406.9223022460938 1731.470581054688 L 369.8781127929688 1753.561889648438 C 368.9619750976562 1754.108154296875 367.8247375488281 1754.126953125 366.8909912109375 1753.611206054688 L 229.2262573242188 1677.569091796875 C 228.270263671875 1677.041015625 227.6767578125 1676.035278320312 227.6767578125 1674.943115234375 L 227.6767578125 1639.542602539062 C 227.6767578125 1638.51416015625 228.2034912109375 1637.557495117188 229.0724487304688 1637.007568359375 L 291.66650390625 1597.39453125 C 292.1464538574219 1597.0908203125 292.7028198242188 1596.929565429688 293.2708129882812 1596.929565429688 L 367.3294677734375 1596.929565429688 L 450.890380859375 1533.309814453125 C 451.4249877929688 1532.90283203125 452.0654907226562 1532.69677734375 452.7079772949219 1532.69677734375 Z" stroke="none" fill="#f2efe9"/>
  </g>
</svg>
