<svg xmlns="http://www.w3.org/2000/svg" width="339.583" height="107.533" viewBox="0 0 339.583 107.533">
  <g id="Path_7467" data-name="Path 7467" transform="translate(-550.884 -1222.376)" fill="#f2efe9" stroke-linecap="round" stroke-linejoin="round">
    <path d="M 605.6742553710938 1328.444091796875 L 605.2796020507812 1328.23828125 L 553.1907958984375 1301.071411132812 L 550.7681274414062 1299.807861328125 L 553.134765625 1298.442260742188 L 605.2235717773438 1268.384765625 L 605.4010620117188 1268.282348632812 L 605.5994873046875 1268.231323242188 L 777.796142578125 1223.923095703125 L 778.1013793945312 1223.844482421875 L 778.4124145507812 1223.8955078125 L 887.7098388671875 1241.801025390625 L 890.4410400390625 1242.248413085938 L 888.5752563476562 1244.29248046875 L 844.1394653320312 1292.974853515625 L 843.693359375 1293.463623046875 L 843.0316162109375 1293.463623046875 L 778.4432983398438 1293.463623046875 L 713.3252563476562 1318.007080078125 L 713.138671875 1318.077392578125 L 712.9402465820312 1318.096557617188 L 606.1173095703125 1328.4013671875 L 605.6742553710938 1328.444091796875 Z" stroke="none"/>
    <path d="M 605.9732666015625 1326.908325195312 L 712.7962036132812 1316.603515625 L 778.169921875 1291.963623046875 L 843.0316162109375 1291.963623046875 L 887.4673461914062 1243.28125 L 778.169921875 1225.375732421875 L 605.9732666015625 1269.683959960938 L 553.8844604492188 1299.741455078125 L 605.9732666015625 1326.908325195312 M 605.9732666015625 1329.908325195312 C 605.4916381835938 1329.908325195312 605.0155029296875 1329.792358398438 604.5859375 1329.568237304688 L 552.4971313476562 1302.4013671875 C 551.5263061523438 1301.895141601562 550.908447265625 1300.900146484375 550.8851318359375 1299.805419921875 C 550.86181640625 1298.710693359375 551.4367065429688 1297.690307617188 552.385009765625 1297.14306640625 L 604.473876953125 1267.085571289062 C 604.7094116210938 1266.949584960938 604.9623413085938 1266.846313476562 605.2256469726562 1266.778564453125 L 777.4223022460938 1222.470336914062 C 777.8248901367188 1222.36669921875 778.2445678710938 1222.34814453125 778.6549072265625 1222.415161132812 L 887.9523315429688 1240.320678710938 C 889.03857421875 1240.498657226562 889.9401245117188 1241.257202148438 890.30126953125 1242.296997070312 C 890.6624755859375 1243.336669921875 890.4251708984375 1244.49072265625 889.68310546875 1245.3037109375 L 845.2473754882812 1293.986083984375 C 844.6790161132812 1294.608764648438 843.874755859375 1294.963623046875 843.0316162109375 1294.963623046875 L 778.7164916992188 1294.963623046875 L 713.854248046875 1319.410766601562 C 713.6066284179688 1319.504028320312 713.3477172851562 1319.564208984375 713.0842895507812 1319.589599609375 L 606.2612915039062 1329.894409179688 C 606.1653442382812 1329.903686523438 606.0691528320312 1329.908325195312 605.9732666015625 1329.908325195312 Z" stroke="none" fill="#f2efe9"/>
  </g>
</svg>
