<svg xmlns="http://www.w3.org/2000/svg" width="503.025" height="213.786" viewBox="0 0 503.025 213.786">
  <g id="Path_7476" data-name="Path 7476" transform="translate(-864.057 -1161.074)" fill="#f2efe9" stroke-linecap="round" stroke-linejoin="round">
    <path d="M 1279.801635742188 1373.398559570312 L 1279.319702148438 1372.866333007812 L 1243.659423828125 1333.488891601562 L 1139.394653320312 1284.690063476562 L 994.8075561523438 1304.722778320312 L 994.6393432617188 1304.74609375 L 994.4701538085938 1304.731079101562 L 866.925537109375 1293.4990234375 L 863.7374877929688 1293.218383789062 L 865.9928588867188 1290.94775390625 L 916.0199584960938 1240.58251953125 L 940.6676635742188 1195.921508789062 L 941.0123291015625 1195.296875 L 941.7144165039062 1195.170166015625 L 1122.113891601562 1162.597900390625 L 1122.495727539062 1162.528930664062 L 1122.863037109375 1162.653686523438 L 1292.457397460938 1220.291381835938 L 1292.891845703125 1220.439086914062 L 1293.169311523438 1220.804443359375 L 1365.276733398438 1315.745849609375 L 1365.582153320312 1316.148071289062 L 1365.582153320312 1316.653076171875 L 1365.582153320312 1367.004028320312 L 1365.582153320312 1368.41943359375 L 1364.169067382812 1368.501586914062 L 1280.518432617188 1373.35693359375 L 1279.801635742188 1373.398559570312 Z" stroke="none"/>
    <path d="M 1280.431518554688 1371.859497070312 L 1364.082153320312 1367.004028320312 L 1364.082153320312 1316.653076171875 L 1291.974731445312 1221.711669921875 L 1122.38037109375 1164.073974609375 L 941.9808959960938 1196.646240234375 L 917.2318725585938 1241.490966796875 L 867.0570678710938 1292.0048828125 L 994.6016845703125 1303.236938476562 L 1139.628540039062 1283.143310546875 L 1244.568603515625 1332.258178710938 L 1280.431518554688 1371.859497070312 M 1280.43115234375 1374.859497070312 C 1279.586791992188 1374.859497070312 1278.778198242188 1374.503173828125 1278.207885742188 1373.873291015625 L 1242.750122070312 1334.719482421875 L 1139.160888671875 1286.23681640625 L 995.013427734375 1306.20849609375 C 994.7899780273438 1306.239501953125 994.5634155273438 1306.245483398438 994.3385009765625 1306.225341796875 L 866.7938232421875 1294.993286132812 C 865.6345825195312 1294.891235351562 864.6389770507812 1294.127807617188 864.2393798828125 1293.034912109375 C 863.83984375 1291.94189453125 864.1084594726562 1290.716430664062 864.9285888671875 1289.890747070312 L 914.8079223632812 1239.67431640625 L 939.3543701171875 1195.19677734375 C 939.7905883789062 1194.406372070312 940.5594482421875 1193.854370117188 941.4478759765625 1193.693969726562 L 1121.847290039062 1161.121704101562 C 1122.348022460938 1161.031372070312 1122.863891601562 1161.06982421875 1123.345703125 1161.233520507812 L 1292.940063476562 1218.871215820312 C 1293.50634765625 1219.063720703125 1294.002075195312 1219.4208984375 1294.36376953125 1219.897216796875 L 1366.47119140625 1314.838623046875 C 1366.867553710938 1315.360473632812 1367.082153320312 1315.997680664062 1367.082153320312 1316.653076171875 L 1367.082153320312 1367.004028320312 C 1367.082153320312 1368.593383789062 1365.842651367188 1369.906982421875 1364.256103515625 1369.9990234375 L 1280.605346679688 1374.8544921875 C 1280.547241210938 1374.857788085938 1280.489013671875 1374.859497070312 1280.43115234375 1374.859497070312 Z" stroke="none" fill="#f2efe9"/>
  </g>
</svg>
