<svg xmlns="http://www.w3.org/2000/svg" width="190.583" height="161.361" viewBox="0 0 190.583 161.361">
  <g id="Path_7469" data-name="Path 7469" transform="translate(-601.988 -1654.672)" fill="#f2efe9" stroke-linecap="round" stroke-linejoin="round">
    <path d="M 643.8302612304688 1814.74853515625 L 643.1576538085938 1814.169677734375 L 604.0092163085938 1780.4775390625 L 603.4876708984375 1780.028686523438 L 603.4876708984375 1779.340576171875 L 603.4876708984375 1721.970703125 L 603.4876708984375 1720.737426757812 L 604.69775390625 1720.4990234375 L 680.9176635742188 1705.483276367188 L 741.7511596679688 1656.503540039062 L 742.3784790039062 1655.998413085938 L 743.14599609375 1656.242309570312 L 779.8389892578125 1667.898071289062 L 780.4156494140625 1668.081176757812 L 780.703857421875 1668.613159179688 L 790.8894653320312 1687.416381835938 L 791.070556640625 1687.750732421875 L 791.070556640625 1688.130859375 L 791.070556640625 1722.328735351562 L 791.070556640625 1723.074584960938 L 790.4759521484375 1723.524658203125 L 739.79736328125 1761.891479492188 L 739.7935791015625 1761.894409179688 L 739.7897338867188 1761.897216796875 L 694.4934692382812 1795.73828125 L 694.3218383789062 1795.866577148438 L 694.12109375 1795.941650390625 L 644.6614990234375 1814.437744140625 L 643.8302612304688 1814.74853515625 Z" stroke="none"/>
    <path d="M 742.69189453125 1657.671875 L 681.5703735351562 1706.883544921875 L 604.9876708984375 1721.970703125 L 604.9876708984375 1779.340576171875 L 644.1361083984375 1813.03271484375 L 693.595703125 1794.53662109375 L 738.8919677734375 1760.695556640625 L 789.570556640625 1722.328735351562 L 789.570556640625 1688.130859375 L 779.3848876953125 1669.32763671875 L 742.69189453125 1657.671875 M 742.692138671875 1654.671875 C 742.9963989257812 1654.671875 743.302490234375 1654.718139648438 743.6001586914062 1654.812622070312 L 780.2930908203125 1666.468383789062 C 781.0330200195312 1666.703491210938 781.6529541015625 1667.216186523438 782.022705078125 1667.898681640625 L 792.2083740234375 1686.701904296875 C 792.4461059570312 1687.140747070312 792.570556640625 1687.6318359375 792.570556640625 1688.130859375 L 792.570556640625 1722.328735351562 C 792.570556640625 1723.268310546875 792.1304321289062 1724.153564453125 791.38134765625 1724.720581054688 L 740.7027587890625 1763.08740234375 C 740.6976928710938 1763.09130859375 740.6925659179688 1763.095092773438 740.6875 1763.098876953125 L 695.3912353515625 1796.93994140625 C 695.1635131835938 1797.110107421875 694.9127807617188 1797.246948242188 694.646484375 1797.346557617188 L 645.1869506835938 1815.842651367188 C 644.1616821289062 1816.226196289062 643.0089721679688 1816.020629882812 642.1791381835938 1815.306518554688 L 603.0307006835938 1781.614379882812 C 602.3685302734375 1781.044555664062 601.9876708984375 1780.214233398438 601.9876708984375 1779.340576171875 L 601.9876708984375 1721.970703125 C 601.9876708984375 1720.537353515625 603.0015258789062 1719.304321289062 604.4077758789062 1719.027221679688 L 680.2649536132812 1704.0830078125 L 740.8104858398438 1655.335083007812 C 741.3507080078125 1654.900146484375 742.0165405273438 1654.671875 742.692138671875 1654.671875 Z" stroke="none" fill="#f2efe9"/>
  </g>
</svg>
