<svg xmlns="http://www.w3.org/2000/svg" width="441.314" height="307.213" viewBox="0 0 441.314 307.213">
  <g id="Path_7474" data-name="Path 7474" transform="translate(-1000.038 -1625.931)" fill="#f2efe9" stroke-linecap="round" stroke-linejoin="round">
    <path d="M 1047.338134765625 1931.643920898438 L 1047.042724609375 1930.52734375 L 1026.189697265625 1851.696044921875 L 1026.07763671875 1851.272705078125 L 1026.2109375 1850.855590820312 L 1047.064086914062 1785.624877929688 L 1047.20654296875 1785.179077148438 L 1047.577392578125 1784.893310546875 L 1101.728393554688 1743.179443359375 L 1057.549926757812 1743.179443359375 L 1056.979736328125 1743.179443359375 L 1056.553588867188 1742.80078125 L 1002.041931152344 1694.359741210938 L 999.6257934570312 1692.212646484375 L 1002.825317382812 1691.753784179688 L 1031.553466796875 1687.632690429688 L 1139.755859375 1627.619506835938 L 1140.79443359375 1627.043334960938 L 1141.593383789062 1627.922241210938 L 1182.910278320312 1673.379150390625 L 1267.56884765625 1673.379150390625 L 1267.751098632812 1673.379150390625 L 1267.927978515625 1673.422729492188 L 1324.740966796875 1687.432250976562 L 1360.80078125 1655.183959960938 L 1361.049194335938 1654.9619140625 L 1361.3681640625 1654.865844726562 L 1437.920043945312 1631.812255859375 L 1439.8525390625 1631.230224609375 L 1439.8525390625 1633.24853515625 L 1439.8525390625 1930.054443359375 L 1439.8525390625 1931.554077148438 L 1438.352905273438 1931.554443359375 L 1048.4931640625 1931.643676757812 L 1047.338134765625 1931.643920898438 Z" stroke="none"/>
    <path d="M 1140.4833984375 1628.93115234375 L 1032.039672851562 1689.078247070312 L 1003.038330078125 1693.238525390625 L 1057.549926757812 1741.679443359375 L 1106.133666992188 1741.679443359375 L 1048.492797851562 1786.081665039062 L 1027.639770507812 1851.312377929688 L 1048.492797851562 1930.143676757812 L 1438.3525390625 1930.054443359375 L 1438.3525390625 1633.24853515625 L 1361.80078125 1656.302124023438 L 1325.150634765625 1689.078247070312 L 1267.56884765625 1674.879150390625 L 1182.246704101562 1674.879150390625 L 1140.4833984375 1628.93115234375 M 1140.482177734375 1625.931030273438 C 1141.306396484375 1625.931030273438 1142.119018554688 1626.270263671875 1142.703369140625 1626.913330078125 L 1183.573974609375 1671.879150390625 L 1267.56884765625 1671.879150390625 C 1267.810913085938 1671.879150390625 1268.052001953125 1671.908447265625 1268.287109375 1671.966430664062 L 1324.331298828125 1685.786376953125 L 1359.800903320312 1654.06591796875 C 1360.128051757812 1653.773315429688 1360.515380859375 1653.55615234375 1360.935668945312 1653.429565429688 L 1437.487548828125 1630.3759765625 C 1438.39599609375 1630.101928710938 1439.38037109375 1630.274658203125 1440.14208984375 1630.840698242188 C 1440.903686523438 1631.40673828125 1441.3525390625 1632.299682617188 1441.3525390625 1633.24853515625 L 1441.3525390625 1930.054443359375 C 1441.3525390625 1931.711059570312 1440.009765625 1933.054077148438 1438.353271484375 1933.054443359375 L 1048.493408203125 1933.143676757812 C 1047.1318359375 1933.14404296875 1045.940673828125 1932.227294921875 1045.592529296875 1930.910888671875 L 1024.739501953125 1852.079467773438 C 1024.59326171875 1851.526733398438 1024.608154296875 1850.943603515625 1024.7822265625 1850.398803710938 L 1045.63525390625 1785.168212890625 C 1045.820922851562 1784.587524414062 1046.179077148438 1784.0771484375 1046.661987304688 1783.705078125 L 1097.3232421875 1744.679443359375 L 1057.549926757812 1744.679443359375 C 1056.815307617188 1744.679443359375 1056.106323242188 1744.409912109375 1055.55712890625 1743.921997070312 L 1001.045532226562 1695.481079101562 C 1000.172485351562 1694.705200195312 999.8291015625 1693.493408203125 1000.165283203125 1692.374877929688 C 1000.501586914062 1691.256469726562 1001.456298828125 1690.434692382812 1002.6123046875 1690.268920898438 L 1031.067260742188 1686.18701171875 L 1139.0283203125 1626.3076171875 C 1139.485595703125 1626.053955078125 1139.986083984375 1625.931030273438 1140.482177734375 1625.931030273438 Z" stroke="none" fill="#f2efe9"/>
  </g>
</svg>
