<svg xmlns="http://www.w3.org/2000/svg" width="531.543" height="220.871" viewBox="0 0 531.543 220.871">
  <g id="Path_7459" data-name="Path 7459" transform="translate(-359.684 -1304.809)" fill="#f2efe9" stroke-linecap="round" stroke-linejoin="round">
    <path d="M 455.2625122070312 1524.320434570312 L 454.6617126464844 1524.038208007812 L 378.9822998046875 1488.493286132812 L 378.2693786621094 1488.158447265625 L 378.1402282714844 1487.381469726562 L 361.2043151855469 1385.479614257812 L 361.0019836425781 1384.261840820312 L 362.1580505371094 1383.828979492188 L 425.2351684570312 1360.20947265625 L 453.9801635742188 1307.095581054688 L 454.4055786132812 1306.309448242188 L 455.2993774414062 1306.309448242188 L 536.2488403320312 1306.309448242188 L 536.6213989257812 1306.309448242188 L 536.9506225585938 1306.483764648438 L 601.8399658203125 1340.835571289062 L 719.4307861328125 1329.419921875 L 785.3154296875 1306.393432617188 L 785.572509765625 1306.303588867188 L 785.8448486328125 1306.309814453125 L 888.2614135742188 1308.667846679688 L 892.6716918945312 1308.769409179688 L 889.1136474609375 1311.377319335938 L 786.697021484375 1386.443481445312 L 786.5521850585938 1386.549682617188 L 786.3862915039062 1386.61865234375 L 455.8753662109375 1524.065551757812 L 455.2625122070312 1524.320434570312 Z" stroke="none"/>
    <path d="M 455.29931640625 1307.809448242188 L 426.287109375 1361.417358398438 L 362.68408203125 1385.233642578125 L 379.6199340820312 1487.135620117188 L 455.29931640625 1522.680541992188 L 785.810302734375 1385.233642578125 L 888.2269287109375 1310.16748046875 L 785.810302734375 1307.809448242188 L 719.7551879882812 1330.8955078125 L 601.5364990234375 1342.3720703125 L 536.2488403320312 1307.809448242188 L 455.29931640625 1307.809448242188 M 455.29931640625 1304.809448242188 L 536.2488403320312 1304.809448242188 C 536.7381591796875 1304.809448242188 537.2200317382812 1304.929077148438 537.6524658203125 1305.158081054688 L 602.1436767578125 1339.299072265625 L 719.1060180664062 1327.944458007812 L 784.8204956054688 1304.977416992188 C 785.1605224609375 1304.858642578125 785.5194091796875 1304.801635742188 785.87939453125 1304.810302734375 L 888.2959594726562 1307.168212890625 C 889.580322265625 1307.19775390625 890.7032470703125 1308.041870117188 891.0887451171875 1309.267333984375 C 891.47412109375 1310.492797851562 891.0364990234375 1311.82763671875 890.0003662109375 1312.587158203125 L 787.583740234375 1387.6533203125 C 787.3912963867188 1387.79443359375 787.1826171875 1387.912109375 786.9622802734375 1388.003662109375 L 456.4512329101562 1525.450561523438 C 455.6707153320312 1525.775146484375 454.7892456054688 1525.755493164062 454.02392578125 1525.395874023438 L 378.344482421875 1489.850952148438 C 377.4518432617188 1489.431762695312 376.8221435546875 1488.600341796875 376.6605224609375 1487.62744140625 L 359.7247314453125 1385.7255859375 C 359.4895629882812 1384.310546875 360.288818359375 1382.927124023438 361.632080078125 1382.424194335938 L 424.1832885742188 1359.001708984375 L 452.660888671875 1306.381591796875 C 453.1851196289062 1305.412963867188 454.1978759765625 1304.809448242188 455.29931640625 1304.809448242188 Z" stroke="none" fill="#f2efe9"/>
  </g>
</svg>
