<svg xmlns="http://www.w3.org/2000/svg" width="294.278" height="367.203" viewBox="0 0 294.278 367.203">
  <g id="Path_7479" data-name="Path 7479" transform="translate(-1148.075 -1025.116)" fill="#f2efe9" stroke-linecap="round" stroke-linejoin="round">
    <path d="M 1440.853515625 1391.920776367188 L 1438.60205078125 1390.617431640625 L 1387.368408203125 1360.9580078125 L 1386.619873046875 1360.524658203125 L 1386.619873046875 1359.659790039062 L 1386.619873046875 1301.067016601562 L 1302.2021484375 1197.38671875 L 1150.61865234375 1148.952758789062 L 1147.206420898438 1147.862426757812 L 1150.37744140625 1146.196044921875 L 1196.053833007812 1122.193481445312 L 1232.381713867188 1027.785888671875 L 1232.751220703125 1026.82568359375 L 1233.780151367188 1026.824584960938 L 1439.35205078125 1026.616088867188 L 1440.853515625 1026.614624023438 L 1440.853515625 1028.116088867188 L 1440.853515625 1389.319213867188 L 1440.853515625 1391.920776367188 Z" stroke="none"/>
    <path d="M 1439.353515625 1028.116088867188 L 1233.781616210938 1028.324584960938 L 1197.251098632812 1123.2587890625 L 1151.0751953125 1147.52392578125 L 1303.083618164062 1196.09375 L 1388.119873046875 1300.533569335938 L 1388.119873046875 1359.659790039062 L 1439.353515625 1389.319213867188 L 1439.353515625 1028.116088867188 M 1439.353515625 1025.116088867188 C 1440.148681640625 1025.116088867188 1440.9111328125 1025.431640625 1441.473754882812 1025.99365234375 C 1442.036987304688 1026.556396484375 1442.353515625 1027.319946289062 1442.353515625 1028.116088867188 L 1442.353515625 1389.319213867188 C 1442.353515625 1390.3916015625 1441.781005859375 1391.382446289062 1440.85205078125 1391.918090820312 C 1439.9228515625 1392.453979492188 1438.778442382812 1392.452880859375 1437.850463867188 1391.91552734375 L 1386.616821289062 1362.256103515625 C 1385.690307617188 1361.7197265625 1385.119873046875 1360.730346679688 1385.119873046875 1359.659790039062 L 1385.119873046875 1301.600463867188 L 1301.320556640625 1198.679809570312 L 1150.162109375 1150.381591796875 C 1149.01025390625 1150.013549804688 1148.192016601562 1148.989990234375 1148.086547851562 1147.785400390625 C 1147.981201171875 1146.580810546875 1148.609252929688 1145.430786132812 1149.6796875 1144.868286132812 L 1194.856567382812 1121.128173828125 L 1230.981811523438 1027.247192382812 C 1231.427001953125 1026.08984375 1232.53857421875 1025.325805664062 1233.778564453125 1025.324584960938 L 1439.350463867188 1025.116088867188 C 1439.351440429688 1025.116088867188 1439.3525390625 1025.116088867188 1439.353515625 1025.116088867188 Z" stroke="none" fill="#f2efe9"/>
  </g>
</svg>
