<svg xmlns="http://www.w3.org/2000/svg" width="365.35" height="276.504" viewBox="0 0 365.35 276.504">
  <g id="Path_7464" data-name="Path 7464" transform="translate(-85.504 -1491.101)" fill="#f2efe9" stroke-linecap="round" stroke-linejoin="round">
    <path d="M 363.1602783203125 1766.098876953125 L 182.4899749755859 1750.233154296875 L 182.0541534423828 1750.19482421875 L 181.7072448730469 1749.928344726562 L 87.59014892578125 1677.605590820312 L 86.27524566650391 1676.595092773438 L 87.41206359863281 1675.387817382812 L 188.1287841796875 1568.42822265625 L 188.4136505126953 1568.125732421875 L 188.8135986328125 1568.012817382812 L 338.2888793945312 1525.84765625 L 382.7471923828125 1492.8955078125 L 383.4693908691406 1492.360229492188 L 384.2819213867188 1492.744750976562 L 448.4951477050781 1523.128662109375 L 450.7117309570312 1524.177490234375 L 448.7685241699219 1525.673217773438 L 373.5325012207031 1583.582397460938 L 373.1280212402344 1583.893676757812 L 372.6176147460938 1583.893676757812 L 297.9786987304688 1583.893676757812 L 224.3606109619141 1630.724853515625 L 224.3606109619141 1680.880126953125 L 364.0538330078125 1763.312744140625 L 363.1602783203125 1766.098876953125 Z" stroke="none"/>
    <path d="M 383.6403198242188 1494.1005859375 L 338.9609985351562 1527.216674804688 L 189.2208251953125 1569.45654296875 L 88.50408935546875 1676.416137695312 L 182.6212463378906 1748.738891601562 L 363.29150390625 1764.604614257812 L 222.8606262207031 1681.736694335938 L 222.8606262207031 1629.901245117188 L 297.5419921875 1582.393676757812 L 372.6175842285156 1582.393676757812 L 447.8535766601562 1524.484497070312 L 383.6403198242188 1494.1005859375 M 383.6406860351562 1491.1005859375 C 384.076904296875 1491.1005859375 384.5150451660156 1491.195556640625 384.9234313964844 1491.388793945312 L 449.1366882324219 1521.772705078125 C 450.0809936523438 1522.219482421875 450.7248229980469 1523.125366210938 450.83642578125 1524.1640625 C 450.947998046875 1525.202758789062 450.51123046875 1526.224609375 449.6834411621094 1526.86181640625 L 374.4474487304688 1584.77099609375 C 373.9228820800781 1585.1748046875 373.279541015625 1585.393676757812 372.6175842285156 1585.393676757812 L 298.4153137207031 1585.393676757812 L 225.8606262207031 1631.54833984375 L 225.8606262207031 1680.023559570312 L 364.8161315917969 1762.020874023438 C 366.0231323242188 1762.733154296875 366.576171875 1764.186157226562 366.148193359375 1765.520751953125 C 365.7201843261719 1766.855224609375 364.4251403808594 1767.715209960938 363.029052734375 1767.593139648438 L 182.3587951660156 1751.727416992188 C 181.7895202636719 1751.677368164062 181.2463684082031 1751.465942382812 180.7932739257812 1751.11767578125 L 86.6761474609375 1678.794921875 C 86.00387573242188 1678.2783203125 85.58157348632812 1677.501342773438 85.51373291015625 1676.65625 C 85.44583129882812 1675.811157226562 85.73873901367188 1674.976806640625 86.31997680664062 1674.359497070312 L 187.0367431640625 1567.39990234375 C 187.4095458984375 1567.004028320312 187.8829956054688 1566.716796875 188.4063415527344 1566.569213867188 L 337.61669921875 1524.478881835938 L 381.8539428710938 1491.6904296875 C 382.3801574707031 1491.300415039062 383.00830078125 1491.1005859375 383.6406860351562 1491.1005859375 Z" stroke="none" fill="#f2efe9"/>
  </g>
</svg>
