<svg xmlns="http://www.w3.org/2000/svg" width="200.602" height="144.104" viewBox="0 0 200.602 144.104">
  <g id="Path_7477" data-name="Path 7477" transform="translate(-1062.907 -1300.687)" fill="#f2efe9" stroke-linecap="round" stroke-linejoin="round">
    <path d="M 1185.691772460938 1443.640869140625 L 1184.524291992188 1443.188842773438 L 1134.630615234375 1423.872436523438 L 1133.858764648438 1423.57373046875 L 1133.699951171875 1422.761474609375 L 1121.925659179688 1362.54638671875 L 1064.937377929688 1314.211059570312 L 1062.348388671875 1312.015258789062 L 1065.715087890625 1311.57958984375 L 1138.205200195312 1302.199096679688 L 1138.622436523438 1302.14501953125 L 1139.006958007812 1302.31591796875 L 1227.164672851562 1341.499145507812 L 1227.444458007812 1341.62353515625 L 1227.653198242188 1341.84765625 L 1261.607421875 1378.312622070312 L 1262.819946289062 1379.61474609375 L 1261.331420898438 1380.589599609375 L 1199.490478515625 1421.091430664062 L 1186.34521484375 1442.572998046875 L 1185.691772460938 1443.640869140625 Z" stroke="none"/>
    <path d="M 1138.397705078125 1303.686645507812 L 1065.907592773438 1313.067138671875 L 1123.296875 1361.742553710938 L 1135.172119140625 1422.4736328125 L 1185.065795898438 1441.7900390625 L 1198.386840820312 1420.021118164062 L 1260.509643554688 1379.334838867188 L 1226.555419921875 1342.869873046875 L 1138.397705078125 1303.686645507812 M 1138.397705078125 1300.686645507812 C 1138.816040039062 1300.686645507812 1139.231201171875 1300.774169921875 1139.6162109375 1300.945190429688 L 1227.77392578125 1340.12841796875 C 1228.143188476562 1340.292602539062 1228.4755859375 1340.529663085938 1228.7509765625 1340.825439453125 L 1262.705200195312 1377.290405273438 C 1263.307861328125 1377.937622070312 1263.59423828125 1378.81787109375 1263.487915039062 1379.69580078125 C 1263.381469726562 1380.57373046875 1262.89306640625 1381.359985351562 1262.1533203125 1381.844482421875 L 1200.594116210938 1422.16162109375 L 1187.624755859375 1443.35595703125 C 1186.867797851562 1444.592651367188 1185.3349609375 1445.111694335938 1183.982666015625 1444.587646484375 L 1134.088989257812 1425.271362304688 C 1133.128295898438 1424.899291992188 1132.425537109375 1424.060424804688 1132.227905273438 1423.04931640625 L 1120.554443359375 1363.350219726562 L 1063.967041015625 1315.35498046875 C 1063.061157226562 1314.586669921875 1062.693969726562 1313.356079101562 1063.030639648438 1312.216918945312 C 1063.367309570312 1311.07763671875 1064.344482421875 1310.244384765625 1065.522583007812 1310.091918945312 L 1138.0126953125 1300.71142578125 C 1138.140747070312 1300.69482421875 1138.269409179688 1300.686645507812 1138.397705078125 1300.686645507812 Z" stroke="none" fill="#f2efe9"/>
  </g>
</svg>
