<svg xmlns="http://www.w3.org/2000/svg" width="348.075" height="134.472" viewBox="0 0 348.075 134.472">
  <g id="Path_7460" data-name="Path 7460" transform="translate(-405.669 -1160.792)" fill="#f2efe9" stroke-linecap="round" stroke-linejoin="round">
    <path d="M 536.47021484375 1293.763427734375 L 536.0721435546875 1293.763427734375 L 453.4570617675781 1293.763427734375 L 452.6506958007812 1293.763427734375 L 452.2059326171875 1293.0908203125 L 407.4180603027344 1225.365234375 L 405.6058044433594 1222.624877929688 L 408.863525390625 1223.050537109375 L 550.8828125 1241.605712890625 L 561.8483276367188 1163.583129882812 L 562.0429077148438 1162.198852539062 L 563.4373168945312 1162.29541015625 L 599.5491943359375 1164.795532226562 L 599.7373046875 1164.80859375 L 599.9163208007812 1164.867797851562 L 751.2149658203125 1214.872436523438 L 756.0195922851562 1216.460327148438 L 751.125732421875 1217.747314453125 L 600.0179443359375 1257.484252929688 L 536.8158569335938 1293.566162109375 L 536.47021484375 1293.763427734375 Z" stroke="none"/>
    <path d="M 563.333740234375 1163.791870117188 L 552.1614990234375 1243.285522460938 L 408.669189453125 1224.537841796875 L 453.45703125 1292.263427734375 L 536.0721435546875 1292.263427734375 L 599.4456176757812 1256.083740234375 L 750.7442016601562 1216.296630859375 L 599.4456176757812 1166.2919921875 L 563.333740234375 1163.791870117188 M 563.3312377929688 1160.791748046875 C 563.4008178710938 1160.791748046875 563.4705810546875 1160.794189453125 563.5409545898438 1160.799072265625 L 599.6527709960938 1163.299194335938 C 599.9026489257812 1163.31640625 600.1492919921875 1163.364990234375 600.3870239257812 1163.443481445312 L 751.6856079101562 1213.448120117188 C 752.947021484375 1213.864990234375 753.7839965820312 1215.061889648438 753.7427978515625 1216.3896484375 C 753.7015380859375 1217.717529296875 752.7919921875 1218.860107421875 751.5072021484375 1219.197998046875 L 600.5902099609375 1258.884765625 L 537.5595092773438 1294.868774414062 C 537.1064453125 1295.127319335938 536.5938110351562 1295.263427734375 536.0721435546875 1295.263427734375 L 453.45703125 1295.263427734375 C 452.4500122070312 1295.263427734375 451.5101928710938 1294.758178710938 450.9547119140625 1293.918212890625 L 406.1668701171875 1226.192626953125 C 405.5189208984375 1225.212890625 405.5023803710938 1223.945190429688 406.1245727539062 1222.948852539062 C 406.7467041015625 1221.952392578125 407.8932495117188 1221.411865234375 409.0578002929688 1221.563110351562 L 549.6041259765625 1239.925903320312 L 560.3629150390625 1163.374267578125 C 560.5723266601562 1161.884643554688 561.84814453125 1160.791748046875 563.3312377929688 1160.791748046875 Z" stroke="none" fill="#f2efe9"/>
  </g>
</svg>
