<svg xmlns="http://www.w3.org/2000/svg" width="191.754" height="188.622" viewBox="0 0 191.754 188.622">
  <g id="Path_7462" data-name="Path 7462" transform="translate(-373.608 -1609.889)" fill="#f2efe9" stroke-linecap="round" stroke-linejoin="round">
    <path d="M 470.4371643066406 1797.893188476562 L 468.5201416015625 1796.818969726562 L 407.2466735839844 1762.484985351562 L 376.6077880859375 1762.484985351562 L 371.2974548339844 1762.484985351562 L 375.8229675292969 1759.706665039062 L 416.6744995117188 1734.627075195312 L 434.4336242675781 1694.77392578125 L 434.5492248535156 1694.5146484375 L 434.7516174316406 1694.3154296875 L 518.5791015625 1611.820068359375 L 520.2784423828125 1610.147705078125 L 521.0504150390625 1612.403442382812 L 531.5953979492188 1643.216186523438 L 563.1240234375 1661.824829101562 L 564.8663940429688 1662.853149414062 L 563.3760375976562 1664.221557617188 L 478.1230773925781 1742.494873046875 L 470.7391662597656 1795.716552734375 L 470.4371643066406 1797.893188476562 Z" stroke="none"/>
    <path d="M 519.6312255859375 1612.88916015625 L 435.8037414550781 1695.384521484375 L 417.85546875 1735.662231445312 L 376.6077880859375 1760.984985351562 L 407.6383056640625 1760.984985351562 L 469.2533874511719 1795.510375976562 L 476.7113952636719 1741.754638671875 L 562.361572265625 1663.116577148438 L 530.3556518554688 1644.226196289062 L 519.6312255859375 1612.88916015625 M 519.6312866210938 1609.889038085938 C 519.86083984375 1609.889038085938 520.0919189453125 1609.915405273438 520.320556640625 1609.969360351562 C 521.3240966796875 1610.206298828125 522.1357421875 1610.942138671875 522.4696044921875 1611.917846679688 L 532.8351440429688 1642.2060546875 L 563.886474609375 1660.533081054688 C 564.7046508789062 1661.015991210938 565.2457275390625 1661.85791015625 565.3450927734375 1662.802856445312 C 565.4444580078125 1663.747680664062 565.09033203125 1664.683837890625 564.3905029296875 1665.326416015625 L 479.5347290039062 1743.235107421875 L 472.2249145507812 1795.922607421875 C 472.0886840820312 1796.904663085938 471.47607421875 1797.755981445312 470.5881652832031 1798.197021484375 C 469.7002868652344 1798.638305664062 468.6517944335938 1798.612182617188 467.7868957519531 1798.12744140625 L 406.8551025390625 1763.984985351562 L 376.6077880859375 1763.984985351562 C 375.2650146484375 1763.984985351562 374.0857543945312 1763.092651367188 373.7207641601562 1761.800415039062 C 373.355712890625 1760.508178710938 373.8938598632812 1759.130859375 375.0382080078125 1758.428344726562 L 415.49365234375 1733.591918945312 L 433.0635070800781 1694.163452148438 C 433.2162475585938 1693.820678710938 433.4319763183594 1693.509521484375 433.699462890625 1693.246337890625 L 517.5269775390625 1610.7509765625 C 518.0945434570312 1610.1923828125 518.8530883789062 1609.889038085938 519.6312866210938 1609.889038085938 Z" stroke="none" fill="#f2efe9"/>
  </g>
</svg>
