<svg xmlns="http://www.w3.org/2000/svg" width="368.94" height="432.495" viewBox="0 0 368.94 432.495">
  <g id="Group_5136" data-name="Group 5136" transform="translate(8228 -3078.621)">
    <g id="Path_7481" data-name="Path 7481" transform="translate(-8246.991 1834.304)" fill="#002952" stroke-linecap="round" stroke-linejoin="round">
      <path d="M 81.4554443359375 1676.876342773438 L 80.84288787841797 1674.139892578125 L 46.44183731079102 1520.458251953125 L 46.36189270019531 1520.10107421875 L 46.45544815063477 1519.747314453125 L 76.82534790039062 1404.855712890625 L 20.76144599914551 1324.514892578125 L 20.49155807495117 1324.128051757812 L 20.49155807495117 1323.656494140625 L 20.49155807495117 1247.317626953125 L 20.49155807495117 1244.4345703125 L 22.85244560241699 1246.089233398438 L 191.9629211425781 1364.610717773438 L 367.6600036621094 1387.806518554688 L 368.7485046386719 1387.9501953125 L 368.9405517578125 1389.03125 L 386.4083251953125 1487.3505859375 L 386.5683898925781 1488.251342773438 L 385.8406677246094 1488.806030273438 L 340.0603942871094 1523.694458007812 L 339.8298950195312 1523.8701171875 L 339.5505981445312 1523.947265625 L 187.2837371826172 1566.01123046875 L 83.39167022705078 1674.848022460938 L 81.4554443359375 1676.876342773438 Z" stroke="none"/>
      <path d="M 21.99154663085938 1247.317626953125 L 21.99154663085938 1323.656494140625 L 78.453125 1404.567138671875 L 47.90560913085938 1520.130615234375 L 82.30661010742188 1673.812255859375 L 186.4848327636719 1564.67578125 L 339.1511840820312 1522.50146484375 L 384.9314575195312 1487.612915039062 L 367.4636840820312 1389.293579101562 L 191.4027252197266 1366.0498046875 L 21.99154663085938 1247.317626953125 M 21.99130249023438 1244.317626953125 C 22.59661865234375 1244.317626953125 23.19921875 1244.500610351562 23.71334838867188 1244.86083984375 L 192.5233154296875 1363.171752929688 L 367.8563232421875 1386.3193359375 C 369.1525573730469 1386.490478515625 370.188720703125 1387.4814453125 370.4173889160156 1388.768798828125 L 387.8851623535156 1487.088134765625 C 388.0817260742188 1488.194458007812 387.6435546875 1489.317993164062 386.7498474121094 1489.9990234375 L 340.9695434570312 1524.887573242188 C 340.6651000976562 1525.119506835938 340.3190002441406 1525.291259765625 339.9500122070312 1525.39306640625 L 188.0826110839844 1567.3466796875 L 84.47665405273438 1675.883666992188 C 83.71255493164062 1676.684326171875 82.56985473632812 1676.998779296875 81.50360107421875 1676.702880859375 C 80.4373779296875 1676.406616210938 79.62078857421875 1675.547485351562 79.37905883789062 1674.467651367188 L 44.97805786132812 1520.785888671875 C 44.87301635742188 1520.316650390625 44.88232421875 1519.828857421875 45.00521850585938 1519.363891601562 L 75.19754028320312 1405.144165039062 L 19.53134155273438 1325.373291015625 C 19.179931640625 1324.869750976562 18.99154663085938 1324.2705078125 18.99154663085938 1323.656494140625 L 18.99154663085938 1247.317626953125 C 18.99154663085938 1246.198608398438 19.61428833007812 1245.172729492188 20.60690307617188 1244.65625 C 21.04254150390625 1244.429565429688 21.51779174804688 1244.317626953125 21.99130249023438 1244.317626953125 Z" stroke="none" fill="#002952"/>
    </g>
    <text id="Ljubljana" transform="translate(-8087.354 3291.304)" fill="#fff" font-size="14" font-family="Helvetica-Light, Helvetica" font-weight="300" letter-spacing="-0.03em" opacity="0.8"><tspan x="0" y="0">Ljubljana</tspan></text>
    <text id="Slovenia" transform="translate(-8115.354 3320.304)" fill="#fff" font-size="20" font-family="Helvetica" letter-spacing="0.025em"><tspan x="0" y="15">SLOVENI</tspan></text>
    <g id="Group_5134" data-name="Group 5134" transform="translate(-8906.74 1375.9)">
      <path id="Path_1075" d="M777.958,189.6,763.3,231.448h28.844Z" transform="translate(0.2 1637.725)" fill="#4b78f7"/>
      <path id="Path_1076" d="M786.959,194.6,772.3,236.448h28.844Z" transform="translate(12.479 1644.546)" fill="#4b78f7"/>
      <path id="Path_1077" d="M793.958,186.6,779.3,228.448h28.844Z" transform="translate(22.029 1633.632)" fill="#4b78f7"/>
      <rect id="Rectangle_533" width="1.419" height="26.007" transform="translate(777.213 1852.623)" fill="#fff"/>
      <rect id="Rectangle_534" width="1.419" height="26.007" transform="translate(798.491 1864.445)" fill="#fff"/>
      <rect id="Rectangle_535" width="1.419" height="26.007" transform="translate(815.041 1845.531)" fill="#fff"/>
    </g>
    <g id="slovenia-2" data-name="slovenia" transform="translate(-7999.323 3244.304)">
      <path id="Path_1087" data-name="Path 1087" d="M68.651,79.816A9.087,9.087,0,1,0,51.1,75.1a8.976,8.976,0,0,0,0,4.715A13.509,13.509,0,1,0,70.145,81.31,11.291,11.291,0,0,0,68.651,79.816Z" transform="translate(-29.472 -38.224)" fill="#2f65dd"/>
      <path id="Path_1088" data-name="Path 1088" d="M134.637,67.9v57.687H78.9V89.56h39.072V67.9Z" transform="translate(-46.817 -37.978)" fill="#e5f0f5"/>
      <path id="Path_1089" data-name="Path 1089" d="M78.9,100.384,91.644,88.2h26.328v12.184Z" transform="translate(-46.817 -48.801)" fill="#4b78f7"/>
      <path id="Path_1090" data-name="Path 1090" d="M162.6,33.722l2.941-4.715a7.161,7.161,0,0,1,.747-10.083,8.057,8.057,0,0,1,1.307-.887L170.909,3.8l3.454,14.238A7.125,7.125,0,0,1,177.3,27.7a8.059,8.059,0,0,1-.887,1.307l2.894,4.761Z" transform="translate(-91.445 -3.8)" fill="#4b78f7"/>
      <path id="Path_1091" data-name="Path 1091" d="M176.828,74.9h0a3.128,3.128,0,0,1,3.128,3.128h0V87.27H173.7V78.028a3.128,3.128,0,0,1,3.128-3.128Z" transform="translate(-97.363 -41.71)" fill="#2f65dd"/>
      <path id="Path_1092" data-name="Path 1092" d="M32.5,119a9.11,9.11,0,0,0-17.6-4.715,8.976,8.976,0,0,0,0,4.715,13.506,13.506,0,1,0,19.092,1.447A8.8,8.8,0,0,0,32.5,119Z" transform="translate(-9.171 -59.107)" fill="#4b78f7"/>
      <path id="Path_1093" data-name="Path 1093" d="M78.3,130.3a9.11,9.11,0,1,0-17.6-4.715,8.976,8.976,0,0,0,0,4.715,13.509,13.509,0,1,0,19.046,1.494A8.74,8.74,0,0,0,78.3,130.3Z" transform="translate(-33.876 -61.874)" fill="#4b78f7"/>
      <rect id="Rectangle_552" data-name="Rectangle 552" width="1.4" height="24.274" transform="translate(34.231 73.811)" fill="#fff"/>
      <path id="Path_1781" data-name="Path 1781" d="M0,0H6.162V1.4H0Z" transform="translate(34.465 82.306) rotate(-44.789)" fill="#fff"/>
      <rect id="Rectangle_554" data-name="Rectangle 554" width="1.4" height="24.274" transform="translate(13.842 65.382)" fill="#fff"/>
      <rect id="Rectangle_555" data-name="Rectangle 555" width="1.4" height="7.282" transform="translate(15.28 75.517) rotate(-141.223)" fill="#fff"/>
      <rect id="Rectangle_1991" data-name="Rectangle 1991" width="1.4" height="7.282" transform="translate(9.59 66.562) rotate(-38.777)" fill="#fff"/>
    </g>
    <g id="Group_5135" data-name="Group 5135" transform="translate(-8569.354 958.304)">
      <g id="Ellipse_33" data-name="Ellipse 33" transform="translate(423 2361)" fill="none" stroke="#fff" stroke-width="3">
        <circle cx="10" cy="10" r="10" stroke="none"/>
        <circle cx="10" cy="10" r="8.5" fill="none"/>
      </g>
      <path id="Path_5648" data-name="Path 5648" d="M5,0A5,5,0,1,1,0,5,5,5,0,0,1,5,0Z" transform="translate(428 2366)" fill="#fff"/>
    </g>
  </g>
</svg>
