<svg xmlns="http://www.w3.org/2000/svg" width="148.769" height="80.834" viewBox="0 0 148.769 80.834">
  <g id="Path_7461" data-name="Path 7461" transform="translate(-581.111 -1630.187)" fill="#f2efe9" stroke-linecap="round" stroke-linejoin="round">
    <path d="M 602.1403198242188 1709.696533203125 L 601.6048583984375 1708.773681640625 L 582.8136596679688 1676.389404296875 L 582.0347900390625 1675.047119140625 L 583.40283203125 1674.314331054688 L 662.65234375 1631.86474609375 L 663.2186889648438 1631.561401367188 L 663.8290405273438 1631.761962890625 L 727.3480224609375 1652.64404296875 L 730.0410766601562 1653.529418945312 L 727.794189453125 1655.257934570312 L 675.7996826171875 1695.25732421875 L 675.5186157226562 1695.473510742188 L 675.1705322265625 1695.541015625 L 603.187744140625 1709.493530273438 L 602.1403198242188 1709.696533203125 Z" stroke="none"/>
    <path d="M 602.9022827148438 1708.020874023438 L 674.8850708007812 1694.068359375 L 726.8795776367188 1654.069091796875 L 663.360595703125 1633.18701171875 L 584.111083984375 1675.636596679688 L 602.9022827148438 1708.020874023438 M 602.901611328125 1711.02099609375 C 601.8468017578125 1711.02099609375 600.8510131835938 1710.463256835938 600.3074951171875 1709.526489257812 L 581.5162963867188 1677.142211914062 C 581.1080932617188 1676.438720703125 581.0029907226562 1675.599609375 581.2251586914062 1674.817260742188 C 581.4473266601562 1674.034790039062 581.9776000976562 1673.376098632812 582.694580078125 1672.992065429688 L 661.944091796875 1630.54248046875 C 662.6673583984375 1630.155029296875 663.5177612304688 1630.080810546875 664.2975463867188 1630.337036132812 L 727.8165283203125 1651.219116210938 C 728.8723754882812 1651.566284179688 729.6498413085938 1652.46875 729.8367919921875 1653.564331054688 C 730.0238037109375 1654.659912109375 729.5897827148438 1655.769165039062 728.7088012695312 1656.446899414062 L 676.7142944335938 1696.446166992188 C 676.3446655273438 1696.73046875 675.913818359375 1696.9248046875 675.4559326171875 1697.013549804688 L 603.47314453125 1710.966064453125 C 603.2823486328125 1711.003051757812 603.0908813476562 1711.02099609375 602.901611328125 1711.02099609375 Z" stroke="none" fill="#f2efe9"/>
  </g>
</svg>
