<svg xmlns="http://www.w3.org/2000/svg" width="395.836" height="201.977" viewBox="0 0 395.836 201.977">
  <g id="Path_7466" data-name="Path 7466" transform="translate(-555.026 -1023.024)" fill="#f2efe9" stroke-linecap="round" stroke-linejoin="round">
    <path d="M 901.0654296875 1223.652221679688 L 900.0557250976562 1223.479858398438 L 784.4525146484375 1203.741821289062 L 784.3377685546875 1203.72216796875 L 784.2274780273438 1203.685180664062 L 607.6043090820312 1144.383056640625 L 607.0872802734375 1144.20947265625 L 606.8025512695312 1143.744262695312 L 575.4976806640625 1092.61376953125 L 575.3905639648438 1092.438842773438 L 575.3343505859375 1092.241577148438 L 556.5838012695312 1026.434814453125 L 556.039306640625 1024.523803710938 L 558.0263671875 1024.523803710938 L 936.3621826171875 1024.523803710938 L 937.7218627929688 1024.523803710938 L 937.85498046875 1025.876953125 L 949.3551635742188 1142.814208984375 L 949.4037475585938 1143.30859375 L 949.1476440429688 1143.734375 L 901.593505859375 1222.774536132812 L 901.0654296875 1223.652221679688 Z" stroke="none"/>
    <path d="M 558.0263061523438 1026.023803710938 L 576.77685546875 1091.83056640625 L 608.081787109375 1142.961059570312 L 784.7049560546875 1202.26318359375 L 900.30810546875 1222.001220703125 L 947.8623046875 1142.961059570312 L 936.3621826171875 1026.023803710938 L 558.0263061523438 1026.023803710938 M 558.0263061523438 1023.023803710938 L 936.3621826171875 1023.023803710938 C 937.9053344726562 1023.023803710938 939.1967163085938 1024.194458007812 939.3477783203125 1025.730224609375 L 950.847900390625 1142.66748046875 C 950.9110107421875 1143.309448242188 950.7655029296875 1143.954833984375 950.432861328125 1144.507690429688 L 902.8787231445312 1223.5478515625 C 902.2418823242188 1224.606323242188 901.0211791992188 1225.166137695312 899.80322265625 1224.958374023438 L 784.2000122070312 1205.220458984375 C 784.04736328125 1205.1943359375 783.8969116210938 1205.156494140625 783.7500610351562 1205.107177734375 L 607.1268920898438 1145.805053710938 C 606.4588623046875 1145.580810546875 605.8911743164062 1145.128540039062 605.5232543945312 1144.527587890625 L 574.2183227539062 1093.397094726562 C 574.076171875 1093.164794921875 573.96630859375 1092.914428710938 573.8917236328125 1092.652709960938 L 555.1411743164062 1026.845947265625 C 554.8833618164062 1025.94091796875 555.0650024414062 1024.967407226562 555.6319580078125 1024.21630859375 C 556.1989135742188 1023.46533203125 557.0853271484375 1023.023803710938 558.0263061523438 1023.023803710938 Z" stroke="none" fill="#f2efe9"/>
  </g>
</svg>
