<svg xmlns="http://www.w3.org/2000/svg" width="361.979" height="221.387" viewBox="0 0 361.979 221.387">
  <g id="Path_7465" data-name="Path 7465" transform="translate(-465.066 -1440.967)" fill="#f2efe9" stroke-linecap="round" stroke-linejoin="round">
    <path d="M 571.5685424804688 1661.062744140625 L 570.8514404296875 1660.670043945312 L 538.0349731445312 1642.699584960938 L 537.5267333984375 1642.421264648438 L 537.337646484375 1641.87353515625 L 527.0509033203125 1612.087036132812 L 526.9686889648438 1611.84912109375 L 526.9686889648438 1611.597412109375 L 526.9686889648438 1597.730102539062 L 505.4566650390625 1558.237548828125 L 467.2177124023438 1532.00341796875 L 464.9511108398438 1530.448364257812 L 467.4852600097656 1529.383544921875 L 674.0630493164062 1442.584228515625 L 674.8758544921875 1442.24267578125 L 675.5696411132812 1442.78662109375 L 742.4099731445312 1495.194091796875 L 804.8306274414062 1492.256591796875 L 805.8204345703125 1492.210083007812 L 806.2516479492188 1493.102294921875 L 825.39599609375 1532.713012695312 L 825.835205078125 1533.621826171875 L 825.1588134765625 1534.370971679688 L 800.3348999023438 1561.86572265625 L 797.783935546875 1598.912841796875 L 797.76806640625 1599.143310546875 L 797.68359375 1599.358276367188 L 778.7095947265625 1647.652954101562 L 778.1942138671875 1648.964721679688 L 776.8529663085938 1648.532104492188 L 662.5983276367188 1611.677978515625 L 572.2871704101562 1660.6728515625 L 571.5685424804688 1661.062744140625 Z" stroke="none"/>
    <path d="M 674.6441040039062 1443.967041015625 L 468.0662841796875 1530.766479492188 L 506.6019287109375 1557.2041015625 L 528.4686889648438 1597.348022460938 L 528.4686889648438 1611.597412109375 L 538.7554321289062 1641.383911132812 L 571.5718994140625 1659.354370117188 L 662.4476318359375 1610.05322265625 L 777.3134155273438 1647.1044921875 L 796.2874755859375 1598.809814453125 L 798.8740844726562 1561.245361328125 L 824.04541015625 1533.36572265625 L 804.901123046875 1493.755004882812 L 741.9234008789062 1496.718627929688 L 674.6441040039062 1443.967041015625 M 674.6437377929688 1440.967041015625 C 675.30419921875 1440.967041015625 675.9579467773438 1441.184936523438 676.4951171875 1441.606201171875 L 742.8966064453125 1493.669555664062 L 804.7601318359375 1490.75830078125 C 805.960205078125 1490.7021484375 807.0791015625 1491.367309570312 807.6021728515625 1492.449584960938 L 826.7464599609375 1532.060302734375 C 827.277587890625 1533.1591796875 827.0899658203125 1534.47021484375 826.2720947265625 1535.376098632812 L 801.7957763671875 1562.485961914062 L 799.2803344726562 1599.015869140625 C 799.2593383789062 1599.3212890625 799.191650390625 1599.621826171875 799.0797119140625 1599.90673828125 L 780.1056518554688 1648.201538085938 C 779.5262451171875 1649.676025390625 777.9003295898438 1650.4462890625 776.3924560546875 1649.959594726562 L 662.7491455078125 1613.302612304688 L 573.00244140625 1661.991333007812 C 572.1065063476562 1662.477416992188 571.0250854492188 1662.475341796875 570.1309814453125 1661.985595703125 L 537.3145751953125 1644.01513671875 C 536.6604614257812 1643.657104492188 536.1632080078125 1643.068115234375 535.9197998046875 1642.363159179688 L 525.633056640625 1612.57666015625 C 525.5242309570312 1612.261596679688 525.4686889648438 1611.9306640625 525.4686889648438 1611.597412109375 L 525.4686889648438 1598.112060546875 L 504.3115844726562 1559.270874023438 L 466.369140625 1533.240234375 C 465.4640502929688 1532.619384765625 464.9702758789062 1531.5537109375 465.081787109375 1530.461791992188 C 465.193359375 1529.369750976562 465.8922729492188 1528.425903320312 466.9041748046875 1528.000732421875 L 673.4819946289062 1441.201293945312 C 673.8560791015625 1441.044067382812 674.2511596679688 1440.967041015625 674.6437377929688 1440.967041015625 Z" stroke="none" fill="#f2efe9"/>
  </g>
</svg>
