<svg xmlns="http://www.w3.org/2000/svg" width="173.523" height="257.138" viewBox="0 0 173.523 257.138">
  <g id="Path_7471" data-name="Path 7471" transform="translate(-463.412 -1675.988)" fill="#f2efe9" stroke-linecap="round" stroke-linejoin="round">
    <path d="M 510.9092712402344 1931.73046875 L 510.3654174804688 1931.217041015625 C 510.2527770996094 1931.110717773438 498.976318359375 1920.4609375 487.8482666015625 1909.659423828125 C 481.3073120117188 1903.310302734375 476.0948486328125 1898.150024414062 472.3556518554688 1894.321899414062 C 470.1238708496094 1892.036987304688 468.3937377929688 1890.201904296875 467.2132873535156 1888.867797851562 C 465.2215270996094 1886.616577148438 464.9035949707031 1885.957641601562 464.9119567871094 1885.250366210938 C 464.9152526855469 1884.972534179688 464.9895324707031 1884.703125 465.1231994628906 1884.468139648438 C 465.2188720703125 1884.129638671875 465.5077819824219 1882.828491210938 466.2423706054688 1877.895263671875 C 466.78466796875 1874.253540039062 467.4955444335938 1869.140991210938 468.3553161621094 1862.699584960938 C 469.8045349121094 1851.842651367188 471.6972045898438 1837.064453125 473.9807434082031 1818.775634765625 C 477.869384765625 1787.632202148438 481.5930786132812 1756.69140625 481.6302490234375 1756.382446289062 L 481.6971130371094 1755.82666015625 L 482.1118469238281 1755.450561523438 L 567.6512451171875 1677.876953125 L 569.0457763671875 1676.612182617188 L 569.967041015625 1678.254028320312 L 589.892578125 1713.763061523438 L 590.0844116210938 1714.10498046875 L 590.0844116210938 1714.4970703125 L 590.0844116210938 1782.713623046875 L 634.8738403320312 1818.645141601562 L 635.5478515625 1819.185913085938 L 635.418212890625 1820.040283203125 L 627.9827270507812 1869.0341796875 L 627.9274291992188 1869.398315429688 L 627.7097778320312 1869.695434570312 L 592.78466796875 1917.3779296875 L 592.4254760742188 1917.868408203125 L 591.8260498046875 1917.970336914062 L 511.6466369628906 1931.605102539062 L 510.9092712402344 1931.73046875 Z" stroke="none"/>
    <path d="M 568.6588745117188 1678.988037109375 L 483.1195068359375 1756.561645507812 C 483.1195068359375 1756.561645507812 467.7921142578125 1883.975219726562 466.4408569335938 1885.191772460938 C 465.089599609375 1886.408325195312 511.3951416015625 1930.126342773438 511.3951416015625 1930.126342773438 L 591.5745849609375 1916.491577148438 L 626.4996948242188 1868.80908203125 L 633.9351806640625 1819.815185546875 L 588.5844116210938 1783.433349609375 L 588.5844116210938 1714.4970703125 L 568.6588745117188 1678.988037109375 M 568.6588134765625 1675.988037109375 C 568.8191528320312 1675.988037109375 568.9803466796875 1676.000854492188 569.1410522460938 1676.026977539062 C 570.0425415039062 1676.173828125 570.828125 1676.723388671875 571.2750854492188 1677.52001953125 L 591.20068359375 1713.029052734375 C 591.4522705078125 1713.477416992188 591.5844116210938 1713.98291015625 591.5844116210938 1714.4970703125 L 591.5844116210938 1781.994018554688 L 635.8125 1817.47509765625 C 636.6468505859375 1818.14453125 637.061767578125 1819.207641601562 636.9012451171875 1820.265380859375 L 629.4656982421875 1869.25927734375 C 629.3931274414062 1869.737670898438 629.2058715820312 1870.19140625 628.919921875 1870.581787109375 L 593.9948120117188 1918.264282226562 C 593.5340576171875 1918.893432617188 592.8463134765625 1919.318359375 592.0775146484375 1919.449096679688 L 511.8980712890625 1933.083862304688 C 510.9693603515625 1933.241821289062 510.0205078125 1932.954223632812 509.3356323242188 1932.307739257812 C 509.2229614257812 1932.201293945312 497.9389038085938 1921.54443359375 486.803466796875 1910.735717773438 C 480.2530517578125 1904.37744140625 475.0310668945312 1899.207641601562 471.2825927734375 1895.369995117188 C 469.0336303710938 1893.067504882812 467.2865600585938 1891.21435546875 466.0899047851562 1889.86181640625 C 464.0999145507812 1887.612548828125 463.3961791992188 1886.575073242188 463.4120483398438 1885.232666015625 C 463.41748046875 1884.777954101562 463.522216796875 1884.33447265625 463.7127075195312 1883.932373046875 C 463.941162109375 1883.004760742188 464.6740112304688 1878.97705078125 466.9533081054688 1861.865356445312 C 468.4051513671875 1850.965454101562 470.29150390625 1836.223022460938 472.5599975585938 1818.047485351562 C 476.42333984375 1787.09375 480.104248046875 1756.508666992188 480.1409301757812 1756.203369140625 C 480.2272338867188 1755.486328125 480.5692138671875 1754.824462890625 481.1041870117188 1754.33935546875 L 566.6434936523438 1676.765747070312 C 567.1995849609375 1676.261474609375 567.9194946289062 1675.988037109375 568.6588134765625 1675.988037109375 Z" stroke="none" fill="#f2efe9"/>
  </g>
</svg>
