<svg xmlns="http://www.w3.org/2000/svg" width="395.454" height="240.012" viewBox="0 0 395.454 240.012">
  <g id="Path_7470" data-name="Path 7470" transform="translate(-587.593 -1696.124)" fill="#f2efe9" stroke-linecap="round" stroke-linejoin="round">
    <path d="M 587.5970458984375 1934.647338867188 L 589.3900756835938 1932.239990234375 L 635.1453857421875 1870.808837890625 L 641.915771484375 1820.428466796875 L 642.0374755859375 1819.523193359375 L 642.8976440429688 1819.2158203125 L 694.5029296875 1800.774658203125 L 791.4223022460938 1726.641235351562 L 791.727294921875 1726.407958984375 L 792.1068725585938 1726.349853515625 L 979.8202514648438 1697.640991210938 L 980.9473266601562 1700.323486328125 L 876.5537719726562 1778.660278320312 L 828.257080078125 1864.089721679688 L 850.9596557617188 1931.679077148438 L 851.6212768554688 1933.64892578125 L 849.5433959960938 1933.65673828125 L 590.5986938476562 1934.635986328125 L 587.5970458984375 1934.647338867188 Z" stroke="none"/>
    <path d="M 590.5930786132812 1933.135986328125 L 849.5377197265625 1932.15673828125 L 826.6221923828125 1863.93359375 L 875.40234375 1777.64892578125 L 980.0469970703125 1699.123779296875 L 792.3336181640625 1727.832641601562 L 695.2283325195312 1802.108276367188 L 643.4024047851562 1820.628295898438 L 636.580322265625 1871.393432617188 L 590.5930786132812 1933.135986328125 M 590.593017578125 1936.135986328125 C 589.4608154296875 1936.135986328125 588.4248046875 1935.49853515625 587.91455078125 1934.487182617188 C 587.4026489257812 1933.472412109375 587.5081787109375 1932.255493164062 588.1871337890625 1931.343994140625 L 633.7105102539062 1870.224243164062 L 640.4291381835938 1820.228759765625 C 640.57861328125 1819.116577148438 641.3362426757812 1818.180786132812 642.3928833007812 1817.80322265625 L 693.7777709960938 1799.440795898438 L 790.510986328125 1725.449829101562 C 790.9111938476562 1725.143676757812 791.3820190429688 1724.943237304688 791.8800659179688 1724.8671875 L 979.5934448242188 1696.158325195312 C 980.95263671875 1695.950073242188 982.2799682617188 1696.693481445312 982.8128051757812 1697.961791992188 C 983.3456420898438 1699.229736328125 982.94775390625 1700.69775390625 981.8475952148438 1701.523315429688 L 877.7050170898438 1779.671752929688 L 829.891845703125 1864.245971679688 L 852.381591796875 1931.201538085938 C 852.6883544921875 1932.114868164062 852.5377807617188 1933.1201171875 851.9767456054688 1933.903442382812 C 851.415771484375 1934.686889648438 850.5126342773438 1935.153076171875 849.549072265625 1935.15673828125 L 590.6044311523438 1936.135986328125 C 590.6006469726562 1936.135986328125 590.5967407226562 1936.135986328125 590.593017578125 1936.135986328125 Z" stroke="none" fill="#f2efe9"/>
  </g>
</svg>
