<svg xmlns="http://www.w3.org/2000/svg" width="268.963" height="146.78" viewBox="0 0 268.963 146.78">
  <g id="Path_7475" data-name="Path 7475" transform="translate(-949.491 -1023.024)" fill="#f2efe9" stroke-linecap="round" stroke-linejoin="round">
    <path d="M 949.5736083984375 1168.764038085938 L 951.20263671875 1166.03466796875 L 964.0608520507812 1144.491455078125 L 950.999755859375 1026.188354492188 L 950.81591796875 1024.523803710938 L 952.4906616210938 1024.523803710938 L 1215.45361328125 1024.523803710938 L 1217.66748046875 1024.523803710938 L 1216.8466796875 1026.579956054688 L 1183.71435546875 1109.583862304688 L 1183.512573242188 1110.089477539062 L 1183.033325195312 1110.348022460938 L 1124.047241210938 1142.157592773438 L 1123.818115234375 1142.281127929688 L 1123.560791015625 1142.320190429688 L 952.716064453125 1168.286499023438 L 949.5736083984375 1168.764038085938 Z" stroke="none"/>
    <path d="M 952.4906616210938 1166.803466796875 L 1123.335327148438 1140.837280273438 L 1182.3212890625 1109.027709960938 L 1215.45361328125 1026.023803710938 L 952.4906616210938 1026.023803710938 L 965.6070556640625 1144.82763671875 L 952.4906616210938 1166.803466796875 M 952.4900512695312 1169.803588867188 C 951.5011596679688 1169.803588867188 950.5632934570312 1169.313842773438 950.0007934570312 1168.476928710938 C 949.3532104492188 1167.513427734375 949.3196411132812 1166.262817382812 949.9146118164062 1165.265991210938 L 962.5145874023438 1144.155395507812 L 949.5087890625 1026.35302734375 C 949.4151611328125 1025.505126953125 949.6868896484375 1024.657592773438 950.2559814453125 1024.022216796875 C 950.8250732421875 1023.386840820312 951.6376953125 1023.023803710938 952.4906616210938 1023.023803710938 L 1215.45361328125 1023.023803710938 C 1216.44873046875 1023.023803710938 1217.379028320312 1023.517211914062 1217.937255859375 1024.340942382812 C 1218.495361328125 1025.164794921875 1218.608764648438 1026.211791992188 1218.239868164062 1027.135986328125 L 1185.107543945312 1110.139892578125 C 1184.8466796875 1110.793334960938 1184.364501953125 1111.334228515625 1183.745239257812 1111.668212890625 L 1124.75927734375 1143.477783203125 C 1124.4560546875 1143.641357421875 1124.126831054688 1143.75146484375 1123.7861328125 1143.80322265625 L 952.9414672851562 1169.769409179688 C 952.7906494140625 1169.792358398438 952.6397094726562 1169.803588867188 952.4900512695312 1169.803588867188 Z" stroke="none" fill="#f2efe9"/>
  </g>
</svg>
