<svg xmlns="http://www.w3.org/2000/svg" width="33.566" height="22.377" viewBox="0 0 33.566 22.377">
  <g id="Group_4913" data-name="Group 4913" transform="translate(-166 -504.984)">
    <g id="Group_4911" data-name="Group 4911" transform="translate(166 504.984)">
      <g id="Group_4902" data-name="Group 4902" transform="translate(0 0)">
        <g id="Group_4901" data-name="Group 4901" transform="translate(0 0)">
          <path id="Path_7332" data-name="Path 7332" d="M30.069,85.333H3.5a3.5,3.5,0,0,0-3.5,3.5v15.384a3.5,3.5,0,0,0,3.5,3.5H30.069a3.5,3.5,0,0,0,3.5-3.5V88.829A3.5,3.5,0,0,0,30.069,85.333Zm2.1,18.881a2.1,2.1,0,0,1-2.1,2.1H3.5a2.1,2.1,0,0,1-2.1-2.1V88.829a2.1,2.1,0,0,1,2.1-2.1H30.069a2.1,2.1,0,0,1,2.1,2.1v15.384Z" transform="translate(0 -85.333)"/>
        </g>
      </g>
      <g id="Group_4904" data-name="Group 4904" transform="translate(0 4.196)">
        <g id="Group_4903" data-name="Group 4903" transform="translate(0 0)">
          <path id="Path_7333" data-name="Path 7333" d="M32.866,149.333H.7a.7.7,0,0,0-.7.7v4.2a.7.7,0,0,0,.7.7H32.866a.7.7,0,0,0,.7-.7v-4.2A.7.7,0,0,0,32.866,149.333Zm-.7,4.2H1.4v-2.8H32.167v2.8Z" transform="translate(0 -149.333)"/>
        </g>
      </g>
      <g id="Group_4906" data-name="Group 4906" transform="translate(4.196 13.986)">
        <g id="Group_4905" data-name="Group 4905" transform="translate(0 0)">
          <path id="Path_7334" data-name="Path 7334" d="M73.091,298.667H64.7a.7.7,0,1,0,0,1.4h8.391a.7.7,0,1,0,0-1.4Z" transform="translate(-64 -298.667)"/>
        </g>
      </g>
      <g id="Group_4908" data-name="Group 4908" transform="translate(4.196 16.783)">
        <g id="Group_4907" data-name="Group 4907">
          <path id="Path_7335" data-name="Path 7335" d="M73.091,341.333H64.7a.7.7,0,1,0,0,1.4h8.391a.7.7,0,1,0,0-1.4Z" transform="translate(-64 -341.333)"/>
        </g>
      </g>
      <g id="Group_4910" data-name="Group 4910" transform="translate(23.776 12.587)">
        <g id="Group_4909" data-name="Group 4909" transform="translate(0 0)">
          <path id="Path_7336" data-name="Path 7336" d="M366.163,277.333h-1.4a2.1,2.1,0,0,0-2.1,2.1v1.4a2.1,2.1,0,0,0,2.1,2.1h1.4a2.1,2.1,0,0,0,2.1-2.1v-1.4A2.1,2.1,0,0,0,366.163,277.333Zm.7,3.5a.7.7,0,0,1-.7.7h-1.4a.7.7,0,0,1-.7-.7v-1.4a.7.7,0,0,1,.7-.7h1.4a.7.7,0,0,1,.7.7Z" transform="translate(-362.667 -277.333)"/>
        </g>
      </g>
    </g>
  </g>
</svg>
